<?xml version="1.0" encoding="UTF-8"?>
<svg width="507px" height="409px" viewBox="0 0 507 409" version="1.1" xmlns="http://www.w3.org/2000/svg" xmlns:xlink="http://www.w3.org/1999/xlink">
    <!-- Generator: Sketch 48.2 (47327) - http://www.bohemiancoding.com/sketch -->
    <title>003-cloud-computing</title>
    <desc>Created with Sketch.</desc>
    <defs></defs>
    <g id="Artboard" stroke="none" stroke-width="1" fill="none" fill-rule="evenodd" transform="translate(-2554.000000, -388.000000)">
        <g id="003-cloud-computing" transform="translate(2554.000000, 388.000000)" fill-rule="nonzero">
            <path d="M332.030968,218.234004 C326.419262,159.767623 277.741473,113.89497 217.813038,113.89497 C171.441567,113.89497 131.733908,141.417415 113.435302,180.908633 C107.925366,179.152735 102.184655,177.961591 96.0984981,177.961591 C64.2572613,177.961591 38.4391126,203.79264 38.4391126,235.620977 C38.4391126,241.950809 39.7076592,247.935196 41.5911284,253.611404 C16.8236516,268.052768 0,294.563243 0,325.289305 C0,371.289529 37.2866702,408.576199 83.286894,408.576199 L83.286894,408.602 L313.912969,408.602 L313.912969,408.576199 C367.01132,408.576199 410,365.561718 410,312.476268 C410,265.630346 376.428666,226.716783 332.030968,218.234004 Z M253.434113,292.000348 L230.626075,292.000348 L230.626075,343.407304 C230.626075,350.492531 224.911165,356.246143 217.813038,356.246143 L192.186962,356.246143 C185.114636,356.246143 179.373925,350.492531 179.373925,343.407304 L179.373925,292.000348 L156.552986,292.000348 C142.637675,292.000348 136.961466,282.710574 143.906222,271.383958 L192.353235,223.629269 C201.847984,214.147421 207.856738,213.827776 217.646765,223.629269 L266.093778,271.383958 C273.064335,282.723474 267.349425,292.000348 253.434113,292.000348 Z" id="Shape" fill-opacity="0.16" fill="#666666"></path>
            <path d="M342.030968,208.234004 C336.419262,149.767623 287.741473,103.89497 227.813038,103.89497 C181.441567,103.89497 141.733908,131.417415 123.435302,170.908633 C117.925366,169.152735 112.184655,167.961591 106.098498,167.961591 C74.2572613,167.961591 48.4391126,193.79264 48.4391126,225.620977 C48.4391126,231.950809 49.7076592,237.935196 51.5911284,243.611404 C26.8236516,258.052768 10,284.563243 10,315.289305 C10,361.289529 47.2866702,398.576199 93.286894,398.576199 L93.286894,398.602 L323.912969,398.602 L323.912969,398.576199 C377.01132,398.576199 420,355.561718 420,302.476268 C420,255.630346 386.428666,216.716783 342.030968,208.234004 Z M263.434113,282.000348 L240.626075,282.000348 L240.626075,333.407304 C240.626075,340.492531 234.911165,346.246143 227.813038,346.246143 L202.186962,346.246143 C195.114636,346.246143 189.373925,340.492531 189.373925,333.407304 L189.373925,282.000348 L166.552986,282.000348 C152.637675,282.000348 146.961466,272.710574 153.906222,261.383958 L202.353235,213.629269 C211.847984,204.147421 217.856738,203.827776 227.646765,213.629269 L276.093778,261.383958 C283.064335,272.723474 277.349425,282.000348 263.434113,282.000348 Z" id="Shape" fill="#666666"></path>
            <g id="002-android-character-symbol" transform="translate(323.000000, 10.000000)" fill="#666666" fill-opacity="0.16">
                <path d="M12.5612944,67 C9.06601855,67 6.09612329,68.2432264 3.65801568,70.7327295 C1.21990808,73.2213611 0,76.2067604 0,79.6897988 L0,133.18906 C0,136.75315 1.21948094,139.780382 3.65801568,142.269014 C6.09612329,144.758081 9.06431,146 12.560013,146 C16.0565702,146 19.0034,144.757645 21.4013566,142.269014 C23.8010217,139.780382 25,136.75315 25,133.18906 L25,79.6897988 C25,76.2054531 23.7796648,73.2200538 21.3415572,70.7327295 C18.9030224,68.2445337 15.9749868,67 12.5612944,67 Z" id="Shape"></path>
                <path d="M31,152.499629 C31,156.297713 32.324939,159.518317 34.9739472,162.161443 C37.6233903,164.801532 40.8513524,166.122661 44.6608784,166.122661 L53.8510663,166.122661 L53.9763396,194.241668 C53.9763396,197.793314 55.2181981,200.805662 57.7014801,203.283918 C60.1843271,205.76174 63.1656574,207 66.6424263,207 C70.2040155,207 73.2249287,205.76174 75.7090807,203.283918 C78.1932327,200.805662 79.4342212,197.793314 79.4342212,194.241668 L79.4342212,166.122661 L96.5709985,166.122661 L96.5709985,194.241668 C96.5709985,197.793314 97.812422,200.805662 100.295269,203.283918 C102.781161,205.76174 105.802944,207 109.363663,207 C112.921338,207 115.943121,205.76174 118.425968,203.283918 C120.908815,200.805662 122.148934,197.793314 122.148934,194.241668 L122.148934,166.122661 L131.464395,166.122661 C135.187795,166.122661 138.376175,164.804135 141.025183,162.161443 C143.675061,159.518317 145,156.297713 145,152.499629 L145,70 L31,70 L31,152.499629 Z" id="Shape"></path>
                <path d="M115.782654,19.0521363 L124.607035,2.73885435 C125.18836,1.65982166 124.979345,0.829830068 123.986955,0.249315715 C122.907912,-0.249202621 122.079687,-0.000161527253 121.50141,0.996875144 L112.548572,17.4331512 C104.674776,13.9465759 96.3476779,12.2032882 87.5607452,12.2032882 C78.7759897,12.2032882 70.4458434,13.9465759 62.5716125,17.4331512 L53.6205153,0.997311293 C53.0422386,0.000274621772 52.2122721,-0.248766472 51.1349704,0.249751864 C50.1399686,0.830266217 49.934001,1.66025781 50.5140196,2.7392905 L59.3410137,19.0521363 C50.3886102,23.6173082 43.2629168,29.9890093 37.9569662,38.1659312 C32.6527575,46.3432893 30,55.2887058 30,65 L145,65 C145,55.2887058 142.347678,46.3428531 137.043034,38.1659312 C131.736212,29.9890093 124.653628,23.616872 115.782654,19.0521363 Z M64.747553,42.7725372 C63.7952252,43.7277036 62.6560897,44.2048506 61.3297109,44.2048506 C60.0033321,44.2048506 58.8850982,43.7281397 57.9723963,42.7725372 C57.0618717,41.8186793 56.6050853,40.6768412 56.6050853,39.3487674 C56.6050853,38.0202574 57.0618717,36.8784193 57.9723963,35.9232529 C58.8837918,34.9680866 60.0037676,34.4918118 61.3297109,34.4918118 C62.6543479,34.4918118 63.7939189,34.9676504 64.747553,35.9232529 C65.7011871,36.8784193 66.1775687,38.0202574 66.1775687,39.3487674 C66.1775687,40.6772773 65.7011871,41.8173709 64.747553,42.7725372 Z M117.151707,42.7725372 C116.238134,43.7277036 115.119029,44.2048506 113.793086,44.2048506 C112.466707,44.2048506 111.329749,43.7281397 110.375679,42.7725372 C109.422045,41.8186793 108.94697,40.6768412 108.94697,39.3487674 C108.94697,38.0202574 109.422045,36.8784193 110.375679,35.9232529 C111.329313,34.9680866 112.466707,34.4918118 113.793086,34.4918118 C115.119029,34.4918118 116.238134,34.9676504 117.151707,35.9232529 C118.060925,36.8784193 118.518582,38.0202574 118.518582,39.3487674 C118.518582,40.6772773 118.062231,41.8173709 117.151707,42.7725372 Z" id="Shape"></path>
                <path d="M170.340213,70.6699799 C167.902064,68.2236171 164.934681,67 161.438064,67 C158.02474,67 155.097936,68.2236171 152.659787,70.6699799 C150.220356,73.1172142 149,76.1244015 149,79.6897988 L149,133.18906 C149,136.75315 150.220356,139.780382 152.659787,142.269014 C155.097936,144.758081 158.02474,146 161.438064,146 C164.934681,146 167.902064,144.757645 170.340213,142.269014 C172.781353,139.780382 174,136.75315 174,133.18906 L174,79.6897988 C174,76.1239658 172.781353,73.1167785 170.340213,70.6699799 Z" id="Shape"></path>
            </g>
            <g id="002-android-character-symbol" transform="translate(333.000000, 0.000000)" fill="#C92727" fill-opacity="0.4">
                <path d="M12.5612944,67 C9.06601855,67 6.09612329,68.2432264 3.65801568,70.7327295 C1.21990808,73.2213611 0,76.2067604 0,79.6897988 L0,133.18906 C0,136.75315 1.21948094,139.780382 3.65801568,142.269014 C6.09612329,144.758081 9.06431,146 12.560013,146 C16.0565702,146 19.0034,144.757645 21.4013566,142.269014 C23.8010217,139.780382 25,136.75315 25,133.18906 L25,79.6897988 C25,76.2054531 23.7796648,73.2200538 21.3415572,70.7327295 C18.9030224,68.2445337 15.9749868,67 12.5612944,67 Z" id="Shape"></path>
                <path d="M31,152.499629 C31,156.297713 32.324939,159.518317 34.9739472,162.161443 C37.6233903,164.801532 40.8513524,166.122661 44.6608784,166.122661 L53.8510663,166.122661 L53.9763396,194.241668 C53.9763396,197.793314 55.2181981,200.805662 57.7014801,203.283918 C60.1843271,205.76174 63.1656574,207 66.6424263,207 C70.2040155,207 73.2249287,205.76174 75.7090807,203.283918 C78.1932327,200.805662 79.4342212,197.793314 79.4342212,194.241668 L79.4342212,166.122661 L96.5709985,166.122661 L96.5709985,194.241668 C96.5709985,197.793314 97.812422,200.805662 100.295269,203.283918 C102.781161,205.76174 105.802944,207 109.363663,207 C112.921338,207 115.943121,205.76174 118.425968,203.283918 C120.908815,200.805662 122.148934,197.793314 122.148934,194.241668 L122.148934,166.122661 L131.464395,166.122661 C135.187795,166.122661 138.376175,164.804135 141.025183,162.161443 C143.675061,159.518317 145,156.297713 145,152.499629 L145,70 L31,70 L31,152.499629 Z" id="Shape"></path>
                <path d="M115.782654,19.0521363 L124.607035,2.73885435 C125.18836,1.65982166 124.979345,0.829830068 123.986955,0.249315715 C122.907912,-0.249202621 122.079687,-0.000161527253 121.50141,0.996875144 L112.548572,17.4331512 C104.674776,13.9465759 96.3476779,12.2032882 87.5607452,12.2032882 C78.7759897,12.2032882 70.4458434,13.9465759 62.5716125,17.4331512 L53.6205153,0.997311293 C53.0422386,0.000274621772 52.2122721,-0.248766472 51.1349704,0.249751864 C50.1399686,0.830266217 49.934001,1.66025781 50.5140196,2.7392905 L59.3410137,19.0521363 C50.3886102,23.6173082 43.2629168,29.9890093 37.9569662,38.1659312 C32.6527575,46.3432893 30,55.2887058 30,65 L145,65 C145,55.2887058 142.347678,46.3428531 137.043034,38.1659312 C131.736212,29.9890093 124.653628,23.616872 115.782654,19.0521363 Z M64.747553,42.7725372 C63.7952252,43.7277036 62.6560897,44.2048506 61.3297109,44.2048506 C60.0033321,44.2048506 58.8850982,43.7281397 57.9723963,42.7725372 C57.0618717,41.8186793 56.6050853,40.6768412 56.6050853,39.3487674 C56.6050853,38.0202574 57.0618717,36.8784193 57.9723963,35.9232529 C58.8837918,34.9680866 60.0037676,34.4918118 61.3297109,34.4918118 C62.6543479,34.4918118 63.7939189,34.9676504 64.747553,35.9232529 C65.7011871,36.8784193 66.1775687,38.0202574 66.1775687,39.3487674 C66.1775687,40.6772773 65.7011871,41.8173709 64.747553,42.7725372 Z M117.151707,42.7725372 C116.238134,43.7277036 115.119029,44.2048506 113.793086,44.2048506 C112.466707,44.2048506 111.329749,43.7281397 110.375679,42.7725372 C109.422045,41.8186793 108.94697,40.6768412 108.94697,39.3487674 C108.94697,38.0202574 109.422045,36.8784193 110.375679,35.9232529 C111.329313,34.9680866 112.466707,34.4918118 113.793086,34.4918118 C115.119029,34.4918118 116.238134,34.9676504 117.151707,35.9232529 C118.060925,36.8784193 118.518582,38.0202574 118.518582,39.3487674 C118.518582,40.6772773 118.062231,41.8173709 117.151707,42.7725372 Z" id="Shape"></path>
                <path d="M170.340213,70.6699799 C167.902064,68.2236171 164.934681,67 161.438064,67 C158.02474,67 155.097936,68.2236171 152.659787,70.6699799 C150.220356,73.1172142 149,76.1244015 149,79.6897988 L149,133.18906 C149,136.75315 150.220356,139.780382 152.659787,142.269014 C155.097936,144.758081 158.02474,146 161.438064,146 C164.934681,146 167.902064,144.757645 170.340213,142.269014 C172.781353,139.780382 174,136.75315 174,133.18906 L174,79.6897988 C174,76.1239658 172.781353,73.1167785 170.340213,70.6699799 Z" id="Shape"></path>
            </g>
        </g>
    </g>
</svg>