<?xml version="1.0" encoding="UTF-8"?>
<svg width="465px" height="507px" viewBox="0 0 465 507" version="1.1" xmlns="http://www.w3.org/2000/svg" xmlns:xlink="http://www.w3.org/1999/xlink">
    <!-- Generator: Sketch 48.2 (47327) - http://www.bohemiancoding.com/sketch -->
    <title>003-cloud-computing</title>
    <desc>Created with Sketch.</desc>
    <defs></defs>
    <g id="Artboard" stroke="none" stroke-width="1" fill="none" fill-rule="evenodd" transform="translate(-2370.000000, -291.000000)">
        <g id="003-cloud-computing" transform="translate(2380.000000, 291.000000)">
            <path d="M332.030968,306.339034 C326.419262,247.872652 277.741473,202 217.813038,202 C171.441567,202 131.733908,229.522445 113.435302,269.013663 C107.925366,267.257765 102.184655,266.066621 96.0984981,266.066621 C64.2572613,266.066621 38.4391126,291.89767 38.4391126,323.726007 C38.4391126,330.055839 39.7076592,336.040226 41.5911284,341.716434 C16.8236516,356.157798 0,382.668273 0,413.394335 C0,459.394559 37.2866702,496.681229 83.286894,496.681229 L83.286894,496.70703 L313.912969,496.70703 L313.912969,496.681229 C367.01132,496.681229 410,453.666748 410,400.581297 C410,353.735376 376.428666,314.821813 332.030968,306.339034 Z M253.434113,380.105378 L230.626075,380.105378 L230.626075,431.512334 C230.626075,438.597561 224.911165,444.351173 217.813038,444.351173 L192.186962,444.351173 C185.114636,444.351173 179.373925,438.597561 179.373925,431.512334 L179.373925,380.105378 L156.552986,380.105378 C142.637675,380.105378 136.961466,370.815604 143.906222,359.488987 L192.353235,311.734299 C201.847984,302.252451 207.856738,301.932806 217.646765,311.734299 L266.093778,359.488987 C273.064335,370.828504 267.349425,380.105378 253.434113,380.105378 Z" id="Shape" stroke="#666666" stroke-width="20" opacity="0.16" fill-rule="nonzero"></path>
            <path d="M263.434113,370.105378 L240.626075,370.105378 L240.626075,421.512334 C240.626075,428.597561 234.911165,434.351173 227.813038,434.351173 L202.186962,434.351173 C195.114636,434.351173 189.373925,428.597561 189.373925,421.512334 L189.373925,370.105378 L166.552986,370.105378 C152.637675,370.105378 146.961466,360.815604 153.906222,349.488987 L202.353235,301.734299 C211.847984,292.252451 217.856738,291.932806 227.646765,301.734299 L276.093778,349.488987 C283.064335,360.828504 277.349425,370.105378 263.434113,370.105378 Z" id="Path" fill-opacity="0.4" fill="#C92727"></path>
            <path d="M342.030968,296.339034 C336.419262,237.872652 287.741473,192 227.813038,192 C181.441567,192 141.733908,219.522445 123.435302,259.013663 C117.925366,257.257765 112.184655,256.066621 106.098498,256.066621 C74.2572613,256.066621 48.4391126,281.89767 48.4391126,313.726007 C48.4391126,320.055839 49.7076592,326.040226 51.5911284,331.716434 C26.8236516,346.157798 10,372.668273 10,403.394335 C10,449.394559 47.2866702,486.681229 93.286894,486.681229 L93.286894,486.70703 L323.912969,486.70703 L323.912969,486.681229 C377.01132,486.681229 420,443.666748 420,390.581297 C420,343.735376 386.428666,304.821813 342.030968,296.339034 Z M263.434113,370.105378 L240.626075,370.105378 L240.626075,421.512334 C240.626075,428.597561 234.911165,434.351173 227.813038,434.351173 L202.186962,434.351173 C195.114636,434.351173 189.373925,428.597561 189.373925,421.512334 L189.373925,370.105378 L166.552986,370.105378 C152.637675,370.105378 146.961466,360.815604 153.906222,349.488987 L202.353235,301.734299 C211.847984,292.252451 217.856738,291.932806 227.646765,301.734299 L276.093778,349.488987 C283.064335,360.828504 277.349425,370.105378 263.434113,370.105378 Z M263.434113,370.105378 L240.626075,370.105378 L240.626075,421.512334 C240.626075,428.597561 234.911165,434.351173 227.813038,434.351173 L202.186962,434.351173 C195.114636,434.351173 189.373925,428.597561 189.373925,421.512334 L189.373925,370.105378 L166.552986,370.105378 C152.637675,370.105378 146.961466,360.815604 153.906222,349.488987 L202.353235,301.734299 C211.847984,292.252451 217.856738,291.932806 227.646765,301.734299 L276.093778,349.488987 C283.064335,360.828504 277.349425,370.105378 263.434113,370.105378 Z" id="Shape" stroke="#666666" stroke-width="20" fill-rule="nonzero"></path>
            <g id="Group-3" transform="translate(166.000000, 0.000000)" fill="#C92727" fill-rule="nonzero">
                <g id="002-android-character-symbol" opacity="0.16" transform="translate(0.000000, 10.000000)" fill-opacity="0.4">
                    <path d="M9.52925782,50.4927536 C6.87766925,50.4927536 4.62464525,51.4296779 2.77504638,53.3058251 C0.925447509,55.1813156 0,57.4311817 0,60.0560802 L0,100.374364 C0,103.060345 0.925123473,105.341737 2.77504638,107.217228 C4.62464525,109.093046 6.8763731,110.028986 9.52828571,110.028986 C12.1808464,110.028986 14.4163724,109.092718 16.2355119,107.217228 C18.0559475,105.341737 18.9655172,103.060345 18.9655172,100.374364 L18.9655172,60.0560802 C18.9655172,57.4301965 18.0397457,55.1803304 16.1901468,53.3058251 C14.3402239,51.4306631 12.1189555,50.4927536 9.52925782,50.4927536 Z" id="Shape"></path>
                    <path d="M23.5172414,114.927257 C23.5172414,117.789581 24.5223676,120.216703 26.5319599,122.208624 C28.5418823,124.198256 30.9906812,125.19389 33.8806664,125.19389 L40.852533,125.19389 L40.9475679,146.385025 C40.9475679,149.061628 41.8896675,151.331803 43.7735366,153.199474 C45.6570757,155.066818 47.9187746,156 50.5563234,156 C53.2582187,156 55.5499459,155.066818 57.434475,153.199474 C59.3190041,151.331803 60.2604437,149.061628 60.2604437,146.385025 L60.2604437,125.19389 L73.2607575,125.19389 L73.2607575,146.385025 C73.2607575,149.061628 74.202527,151.331803 76.0860662,153.199474 C77.9719152,155.066818 80.2643024,156 82.9655378,156 C85.6644632,156 87.9568505,155.066818 89.8403896,153.199474 C91.7239287,151.331803 92.6647084,149.061628 92.6647084,146.385025 L92.6647084,125.19389 L99.7316099,125.19389 C102.556259,125.19389 104.975029,124.200218 106.984621,122.208624 C108.994874,120.216703 110,117.789581 110,114.927257 L110,52.7536232 L23.5172414,52.7536232 L23.5172414,114.927257 Z" id="Shape"></path>
                    <path d="M87.8351168,14.3581317 L94.5294751,2.06406415 C94.9704802,1.25088009 94.8119166,0.625379181 94.0590697,0.187890104 C93.2404849,-0.187804874 92.6121765,-0.000121730684 92.1734838,0.751268225 L85.381675,13.138027 C79.4084509,10.510463 73.0913419,9.19668096 66.4253929,9.19668096 C59.7610956,9.19668096 53.4416743,10.510463 47.4681198,13.138027 L40.6776323,0.751596917 C40.2389396,0.000206961335 39.6093099,-0.187476182 38.7920465,0.188218796 C38.0372175,0.625707874 37.8809663,1.25120879 38.3209804,2.06439284 L45.0173207,14.3581317 C38.2258422,17.7985511 32.8201437,22.6004128 28.7949399,28.7627308 C24.7710574,34.9253774 22.7586207,41.6668508 22.7586207,48.9855072 L110,48.9855072 C110,41.6668508 107.987894,34.9250487 103.963681,28.7627308 C99.9378163,22.6004128 94.5648216,17.7982224 87.8351168,14.3581317 Z M49.1188333,32.2343759 C48.3963777,32.9542114 47.532206,33.3138005 46.5259876,33.3138005 C45.5197692,33.3138005 44.6714538,32.9545401 43.9790593,32.2343759 C43.2883164,31.5155264 42.9417888,30.6550107 42.9417888,29.6541435 C42.9417888,28.6529476 43.2883164,27.7924319 43.9790593,27.0725964 C44.6704628,26.3527609 45.5200995,25.9938292 46.5259876,25.9938292 C47.5308846,25.9938292 48.3953867,26.3524322 49.1188333,27.0725964 C49.8422798,27.7924319 50.2036728,28.6529476 50.2036728,29.6541435 C50.2036728,30.6553394 49.8422798,31.5145404 49.1188333,32.2343759 Z M88.8737086,32.2343759 C88.1806534,32.9542114 87.3316773,33.3138005 86.3257892,33.3138005 C85.3195709,33.3138005 84.4570508,32.9545401 83.7332739,32.2343759 C83.0098273,31.5155264 82.6494254,30.6550107 82.6494254,29.6541435 C82.6494254,28.6529476 83.0098273,27.7924319 83.7332739,27.0725964 C84.4567204,26.3527609 85.3195709,25.9938292 86.3257892,25.9938292 C87.3316773,25.9938292 88.1806534,26.3524322 88.8737086,27.0725964 C89.5634604,27.7924319 89.9106487,28.6529476 89.9106487,29.6541435 C89.9106487,30.6553394 89.5644514,31.5145404 88.8737086,32.2343759 Z" id="Shape"></path>
                    <path d="M129.22361,53.2585356 C127.37398,51.4148999 125.122861,50.4927536 122.470255,50.4927536 C119.880837,50.4927536 117.660503,51.4148999 115.810873,53.2585356 C113.96027,55.1028281 113.034483,57.3691142 113.034483,60.0560802 L113.034483,100.374364 C113.034483,103.060345 113.96027,105.341737 115.810873,107.217228 C117.660503,109.093046 119.880837,110.028986 122.470255,110.028986 C125.122861,110.028986 127.37398,109.092718 129.22361,107.217228 C131.075509,105.341737 132,103.060345 132,100.374364 L132,60.0560802 C132,57.3687858 131.075509,55.1024997 129.22361,53.2585356 Z" id="Shape"></path>
                </g>
                <g id="002-android-character-symbol" transform="translate(10.000000, 0.000000)" fill-opacity="0.4">
                    <path d="M9.52925782,50.4927536 C6.87766925,50.4927536 4.62464525,51.4296779 2.77504638,53.3058251 C0.925447509,55.1813156 0,57.4311817 0,60.0560802 L0,100.374364 C0,103.060345 0.925123473,105.341737 2.77504638,107.217228 C4.62464525,109.093046 6.8763731,110.028986 9.52828571,110.028986 C12.1808464,110.028986 14.4163724,109.092718 16.2355119,107.217228 C18.0559475,105.341737 18.9655172,103.060345 18.9655172,100.374364 L18.9655172,60.0560802 C18.9655172,57.4301965 18.0397457,55.1803304 16.1901468,53.3058251 C14.3402239,51.4306631 12.1189555,50.4927536 9.52925782,50.4927536 Z" id="Shape"></path>
                    <path d="M23.5172414,114.927257 C23.5172414,117.789581 24.5223676,120.216703 26.5319599,122.208624 C28.5418823,124.198256 30.9906812,125.19389 33.8806664,125.19389 L40.852533,125.19389 L40.9475679,146.385025 C40.9475679,149.061628 41.8896675,151.331803 43.7735366,153.199474 C45.6570757,155.066818 47.9187746,156 50.5563234,156 C53.2582187,156 55.5499459,155.066818 57.434475,153.199474 C59.3190041,151.331803 60.2604437,149.061628 60.2604437,146.385025 L60.2604437,125.19389 L73.2607575,125.19389 L73.2607575,146.385025 C73.2607575,149.061628 74.202527,151.331803 76.0860662,153.199474 C77.9719152,155.066818 80.2643024,156 82.9655378,156 C85.6644632,156 87.9568505,155.066818 89.8403896,153.199474 C91.7239287,151.331803 92.6647084,149.061628 92.6647084,146.385025 L92.6647084,125.19389 L99.7316099,125.19389 C102.556259,125.19389 104.975029,124.200218 106.984621,122.208624 C108.994874,120.216703 110,117.789581 110,114.927257 L110,52.7536232 L23.5172414,52.7536232 L23.5172414,114.927257 Z" id="Shape"></path>
                    <path d="M87.8351168,14.3581317 L94.5294751,2.06406415 C94.9704802,1.25088009 94.8119166,0.625379181 94.0590697,0.187890104 C93.2404849,-0.187804874 92.6121765,-0.000121730684 92.1734838,0.751268225 L85.381675,13.138027 C79.4084509,10.510463 73.0913419,9.19668096 66.4253929,9.19668096 C59.7610956,9.19668096 53.4416743,10.510463 47.4681198,13.138027 L40.6776323,0.751596917 C40.2389396,0.000206961335 39.6093099,-0.187476182 38.7920465,0.188218796 C38.0372175,0.625707874 37.8809663,1.25120879 38.3209804,2.06439284 L45.0173207,14.3581317 C38.2258422,17.7985511 32.8201437,22.6004128 28.7949399,28.7627308 C24.7710574,34.9253774 22.7586207,41.6668508 22.7586207,48.9855072 L110,48.9855072 C110,41.6668508 107.987894,34.9250487 103.963681,28.7627308 C99.9378163,22.6004128 94.5648216,17.7982224 87.8351168,14.3581317 Z M49.1188333,32.2343759 C48.3963777,32.9542114 47.532206,33.3138005 46.5259876,33.3138005 C45.5197692,33.3138005 44.6714538,32.9545401 43.9790593,32.2343759 C43.2883164,31.5155264 42.9417888,30.6550107 42.9417888,29.6541435 C42.9417888,28.6529476 43.2883164,27.7924319 43.9790593,27.0725964 C44.6704628,26.3527609 45.5200995,25.9938292 46.5259876,25.9938292 C47.5308846,25.9938292 48.3953867,26.3524322 49.1188333,27.0725964 C49.8422798,27.7924319 50.2036728,28.6529476 50.2036728,29.6541435 C50.2036728,30.6553394 49.8422798,31.5145404 49.1188333,32.2343759 Z M88.8737086,32.2343759 C88.1806534,32.9542114 87.3316773,33.3138005 86.3257892,33.3138005 C85.3195709,33.3138005 84.4570508,32.9545401 83.7332739,32.2343759 C83.0098273,31.5155264 82.6494254,30.6550107 82.6494254,29.6541435 C82.6494254,28.6529476 83.0098273,27.7924319 83.7332739,27.0725964 C84.4567204,26.3527609 85.3195709,25.9938292 86.3257892,25.9938292 C87.3316773,25.9938292 88.1806534,26.3524322 88.8737086,27.0725964 C89.5634604,27.7924319 89.9106487,28.6529476 89.9106487,29.6541435 C89.9106487,30.6553394 89.5644514,31.5145404 88.8737086,32.2343759 Z" id="Shape"></path>
                    <path d="M129.22361,53.2585356 C127.37398,51.4148999 125.122861,50.4927536 122.470255,50.4927536 C119.880837,50.4927536 117.660503,51.4148999 115.810873,53.2585356 C113.96027,55.1028281 113.034483,57.3691142 113.034483,60.0560802 L113.034483,100.374364 C113.034483,103.060345 113.96027,105.341737 115.810873,107.217228 C117.660503,109.093046 119.880837,110.028986 122.470255,110.028986 C125.122861,110.028986 127.37398,109.092718 129.22361,107.217228 C131.075509,105.341737 132,103.060345 132,100.374364 L132,60.0560802 C132,57.3687858 131.075509,55.1024997 129.22361,53.2585356 Z" id="Shape"></path>
                </g>
                <g id="001-apple" opacity="0.16" transform="translate(162.000000, 88.000000)" fill-opacity="0.6">
                    <path d="M97.7186778,76.5128638 C97.5373848,58.2763501 112.558883,49.5303273 113.229892,49.0957965 C104.789665,36.7179959 91.6417147,35.0223413 86.9564418,34.8263102 C75.7670728,33.6909051 65.1232665,41.4283664 59.4445306,41.4283664 C53.7801072,41.4283664 45.0171455,34.9942163 35.7372462,35.1632474 C23.541224,35.3449347 12.2957272,42.2701468 6.01586185,53.2166675 C-6.65556323,75.2525838 2.77082978,107.89724 15.1212035,125.768691 C21.1560707,134.516683 28.3522233,144.341861 37.8005062,143.990861 C46.8991125,143.626924 50.3397502,138.090523 61.3399683,138.090523 C72.3399058,138.090523 75.4322701,143.990861 85.0607234,143.809737 C94.8516668,143.627487 101.054637,134.894401 107.04797,126.119691 C113.978076,115.971076 116.831616,106.145617 117,105.641336 C116.782505,105.541773 97.9078287,98.2953741 97.7186778,76.5128638 Z M79.6264242,22.9952591 C84.6411677,16.8980462 88.0259581,8.43889812 87.1026548,0 C79.8792802,0.294749716 71.1236151,4.82202661 65.9410494,10.9054582 C61.2908564,16.3020781 57.2201836,24.915351 58.3110285,33.1854993 C66.3749178,33.8160612 74.6063487,29.0786907 79.6264242,22.9952591 Z" id="Shape"></path>
                </g>
                <g id="001-apple" transform="translate(172.000000, 78.000000)" fill-opacity="0.6">
                    <path d="M97.7186778,76.5128638 C97.5373848,58.2763501 112.558883,49.5303273 113.229892,49.0957965 C104.789665,36.7179959 91.6417147,35.0223413 86.9564418,34.8263102 C75.7670728,33.6909051 65.1232665,41.4283664 59.4445306,41.4283664 C53.7801072,41.4283664 45.0171455,34.9942163 35.7372462,35.1632474 C23.541224,35.3449347 12.2957272,42.2701468 6.01586185,53.2166675 C-6.65556323,75.2525838 2.77082978,107.89724 15.1212035,125.768691 C21.1560707,134.516683 28.3522233,144.341861 37.8005062,143.990861 C46.8991125,143.626924 50.3397502,138.090523 61.3399683,138.090523 C72.3399058,138.090523 75.4322701,143.990861 85.0607234,143.809737 C94.8516668,143.627487 101.054637,134.894401 107.04797,126.119691 C113.978076,115.971076 116.831616,106.145617 117,105.641336 C116.782505,105.541773 97.9078287,98.2953741 97.7186778,76.5128638 Z M79.6264242,22.9952591 C84.6411677,16.8980462 88.0259581,8.43889812 87.1026548,0 C79.8792802,0.294749716 71.1236151,4.82202661 65.9410494,10.9054582 C61.2908564,16.3020781 57.2201836,24.915351 58.3110285,33.1854993 C66.3749178,33.8160612 74.6063487,29.0786907 79.6264242,22.9952591 Z" id="Shape"></path>
                </g>
            </g>
        </g>
    </g>
</svg>