<?xml version="1.0" encoding="UTF-8"?>
<svg width="579px" height="399px" viewBox="0 0 579 399" version="1.1" xmlns="http://www.w3.org/2000/svg" xmlns:xlink="http://www.w3.org/1999/xlink">
    <!-- Generator: Sketch 48.2 (47327) - http://www.bohemiancoding.com/sketch -->
    <title>Group 2</title>
    <desc>Created with Sketch.</desc>
    <defs></defs>
    <g id="Artboard" stroke="none" stroke-width="1" fill="none" fill-rule="evenodd" transform="translate(-1078.000000, -386.000000)">
        <g id="Group-2" transform="translate(1078.000000, 386.000000)">
            <rect id="Rectangle-7" fill="#C92727" x="200" y="343" width="189" height="35"></rect>
            <rect id="Rectangle-5" fill="#FFFFFF" x="239" y="228" width="113" height="44"></rect>
            <polygon id="Rectangle-6" fill="#C92727" points="226 277 366 277 374 343 219 343"></polygon>
            <g id="barrier">
                <g id="Group" transform="translate(19.000000, 61.000000)"></g>
                <g id="Group" transform="translate(19.000000, 9.000000)" fill="#C92727" fill-opacity="0.4" fill-rule="nonzero">
                    <path d="M490.912713,167.813211 L419.085156,167.813211 L245.503558,0.0295657895 L317.330005,0.0295657895 L317.985387,0.0295657895 L491.926597,167.813211 L490.912713,167.813211 Z M365.215043,167.813211 L293.387485,167.813211 L119.805887,0.0295657895 L191.632334,0.0295657895 L276,81.5786704 L276,81.028375 L365.969323,167.813211 L365.215043,167.813211 Z M245.503558,167.813211 L173.676,167.813211 L0.0932911964,0.0295657895 L71.9208488,0.0295657895 L245.503558,167.813211 Z M0.0932911964,52.1004671 L119.805887,167.813211 L47.9783296,167.813211 L0.0932911964,121.527224 L0.0932911964,52.1004671 Z M551.906516,0.0295657895 L551.906516,52.1004671 L497.924032,0.0295657895 L551.906516,0.0295657895 Z M551.906516,104.170257 L551.906516,167.813211 L545.907968,167.813211 L371.967871,0.0295657895 L443.942661,0.0295657895 L551.906516,104.170257 Z" id="Combined-Shape"></path>
                </g>
                <polygon id="Rectangle-4" fill="#C92727" points="271 131 318 131 338 222 246 222"></polygon>
                <path d="M570.016023,0 L18.9839766,0 C14.0207852,0 10,4.01864322 10,8.97670953 L10,176.546026 C10,181.505202 14.0207852,185.522735 18.9839766,185.522735 L45.9370176,185.522735 L45.9370176,371.046581 L30.9629824,371.046581 C25.999791,371.046581 21.9790059,375.064114 21.9790059,380.02329 C21.9790059,384.982467 25.999791,389 30.9629824,389 L558.037018,389 C563.000209,389 567.020994,384.982467 567.020994,380.02329 C567.020994,375.064114 563.000209,371.046581 558.037018,371.046581 L543.062982,371.046581 L543.062982,185.523846 L570.016023,185.523846 C574.979215,185.523846 579,181.506313 579,176.547136 L579,8.97670953 C579,4.01864322 574.979215,0 570.016023,0 Z M63.9049707,185.523846 L93.8519297,185.523846 L93.8519297,371.047691 L63.9049707,371.047691 L63.9049707,185.523846 Z M111.820994,185.523846 L245.411525,185.523846 L203.816736,335.139743 L198.667953,335.139743 C193.704762,335.139743 189.683977,339.157276 189.683977,344.116452 L189.683977,371.047691 L111.820994,371.047691 L111.820994,185.523846 Z M237.44108,281.277265 L351.560031,281.277265 L366.534066,335.138632 L222.467045,335.138632 L237.44108,281.277265 Z M242.430943,263.323846 L250.750346,233.40111 L338.248543,233.40111 L346.567945,263.323846 L242.430943,263.323846 Z M333.257568,215.446581 L255.740209,215.446581 L277.368877,137.646581 L311.6289,137.646581 L333.257568,215.446581 Z M207.653041,371.046581 L207.653041,353.093162 L210.64807,353.093162 L378.353041,353.093162 L381.34807,353.093162 L381.34807,371.046581 L207.653041,371.046581 Z M399.316023,371.046581 L399.316023,344.115342 C399.316023,339.156165 395.295238,335.138632 390.332047,335.138632 L385.182152,335.138632 L343.587363,185.523846 L477.179006,185.523846 L477.179006,371.047691 L399.316023,371.047691 L399.316023,371.046581 Z M525.095029,371.046581 L495.14807,371.046581 L495.14807,185.523846 L525.095029,185.523846 L525.095029,371.046581 Z M561.032047,167.569316 L338.598611,167.569316 L327.115258,126.265792 C326.035047,122.3804 322.495467,119.692051 318.458012,119.692051 L270.541988,119.692051 C266.506756,119.692051 262.966064,122.3804 261.884742,126.265792 L250.4025,167.569316 L27.9679531,167.569316 L27.9679531,17.9545295 L561.032047,17.9545295 L561.032047,167.569316 Z" id="Shape" fill="#FFFFFF" fill-rule="nonzero"></path>
                <path d="M560.016023,10 L8.98397656,10 C4.02078516,10 0,14.0186432 0,18.9767095 L0,186.546026 C0,191.505202 4.02078516,195.522735 8.98397656,195.522735 L35.9370176,195.522735 L35.9370176,381.046581 L20.9629824,381.046581 C15.999791,381.046581 11.9790059,385.064114 11.9790059,390.02329 C11.9790059,394.982467 15.999791,399 20.9629824,399 L548.037018,399 C553.000209,399 557.020994,394.982467 557.020994,390.02329 C557.020994,385.064114 553.000209,381.046581 548.037018,381.046581 L533.062982,381.046581 L533.062982,195.523846 L560.016023,195.523846 C564.979215,195.523846 569,191.506313 569,186.547136 L569,18.9767095 C569,14.0186432 564.979215,10 560.016023,10 Z M53.9049707,195.523846 L83.8519297,195.523846 L83.8519297,381.047691 L53.9049707,381.047691 L53.9049707,195.523846 Z M101.820994,195.523846 L235.411525,195.523846 L193.816736,345.139743 L188.667953,345.139743 C183.704762,345.139743 179.683977,349.157276 179.683977,354.116452 L179.683977,381.047691 L101.820994,381.047691 L101.820994,195.523846 Z M227.44108,291.277265 L341.560031,291.277265 L356.534066,345.138632 L212.467045,345.138632 L227.44108,291.277265 Z M232.430943,273.323846 L240.750346,243.40111 L328.248543,243.40111 L336.567945,273.323846 L232.430943,273.323846 Z M323.257568,225.446581 L245.740209,225.446581 L267.368877,147.646581 L301.6289,147.646581 L323.257568,225.446581 Z M197.653041,381.046581 L197.653041,363.093162 L200.64807,363.093162 L368.353041,363.093162 L371.34807,363.093162 L371.34807,381.046581 L197.653041,381.046581 Z M389.316023,381.046581 L389.316023,354.115342 C389.316023,349.156165 385.295238,345.138632 380.332047,345.138632 L375.182152,345.138632 L333.587363,195.523846 L467.179006,195.523846 L467.179006,381.047691 L389.316023,381.047691 L389.316023,381.046581 Z M515.095029,381.046581 L485.14807,381.046581 L485.14807,195.523846 L515.095029,195.523846 L515.095029,381.046581 Z M551.032047,177.569316 L328.598611,177.569316 L317.115258,136.265792 C316.035047,132.3804 312.495467,129.692051 308.458012,129.692051 L260.541988,129.692051 C256.506756,129.692051 252.966064,132.3804 251.884742,136.265792 L240.4025,177.569316 L17.9679531,177.569316 L17.9679531,27.9545295 L551.032047,27.9545295 L551.032047,177.569316 Z" id="Shape" fill="#FFFFFF" fill-rule="nonzero" opacity="0.16"></path>
            </g>
        </g>
    </g>
</svg>