<?xml version="1.0" encoding="UTF-8"?>
<svg width="499px" height="393px" viewBox="0 0 499 393" version="1.1" xmlns="http://www.w3.org/2000/svg" xmlns:xlink="http://www.w3.org/1999/xlink">
    <!-- Generator: Sketch 48.2 (47327) - http://www.bohemiancoding.com/sketch -->
    <title>ios</title>
    <desc>Created with Sketch.</desc>
    <defs></defs>
    <g id="Artboard" stroke="none" stroke-width="1" fill="none" fill-rule="evenodd" transform="translate(-3033.000000, -418.000000)">
        <g id="ios" transform="translate(3033.000000, 418.000000)" fill-rule="nonzero">
            <g id="003-cloud-computing" transform="translate(0.000000, 87.000000)" fill="#666666">
                <path d="M332.030968,115.234004 C326.419262,56.7676225 277.741473,10.8949701 217.813038,10.8949701 C171.441567,10.8949701 131.733908,38.4174148 113.435302,77.9086327 C107.925366,76.1527349 102.184655,74.9615911 96.0984981,74.9615911 C64.2572613,74.9615911 38.4391126,100.79264 38.4391126,132.620977 C38.4391126,138.950809 39.7076592,144.935196 41.5911284,150.611404 C16.8236516,165.052768 0,191.563243 0,222.289305 C0,268.289529 37.2866702,305.576199 83.286894,305.576199 L83.286894,305.602 L313.912969,305.602 L313.912969,305.576199 C367.01132,305.576199 410,262.561718 410,209.476268 C410,162.630346 376.428666,123.716783 332.030968,115.234004 Z M253.434113,189.000348 L230.626075,189.000348 L230.626075,240.407304 C230.626075,247.492531 224.911165,253.246143 217.813038,253.246143 L192.186962,253.246143 C185.114636,253.246143 179.373925,247.492531 179.373925,240.407304 L179.373925,189.000348 L156.552986,189.000348 C142.637675,189.000348 136.961466,179.710574 143.906222,168.383958 L192.353235,120.629269 C201.847984,111.147421 207.856738,110.827776 217.646765,120.629269 L266.093778,168.383958 C273.064335,179.723474 267.349425,189.000348 253.434113,189.000348 Z" id="Shape" fill-opacity="0.16"></path>
                <path d="M342.030968,105.234004 C336.419262,46.7676225 287.741473,0.894970116 227.813038,0.894970116 C181.441567,0.894970116 141.733908,28.4174148 123.435302,67.9086327 C117.925366,66.1527349 112.184655,64.9615911 106.098498,64.9615911 C74.2572613,64.9615911 48.4391126,90.7926403 48.4391126,122.620977 C48.4391126,128.950809 49.7076592,134.935196 51.5911284,140.611404 C26.8236516,155.052768 10,181.563243 10,212.289305 C10,258.289529 47.2866702,295.576199 93.286894,295.576199 L93.286894,295.602 L323.912969,295.602 L323.912969,295.576199 C377.01132,295.576199 420,252.561718 420,199.476268 C420,152.630346 386.428666,113.716783 342.030968,105.234004 Z M263.434113,179.000348 L240.626075,179.000348 L240.626075,230.407304 C240.626075,237.492531 234.911165,243.246143 227.813038,243.246143 L202.186962,243.246143 C195.114636,243.246143 189.373925,237.492531 189.373925,230.407304 L189.373925,179.000348 L166.552986,179.000348 C152.637675,179.000348 146.961466,169.710574 153.906222,158.383958 L202.353235,110.629269 C211.847984,101.147421 217.856738,100.827776 227.646765,110.629269 L276.093778,158.383958 C283.064335,169.723474 277.349425,179.000348 263.434113,179.000348 Z" id="Shape"></path>
            </g>
            <g id="001-apple" transform="translate(344.000000, 0.000000)" fill="#C92727" fill-opacity="0.4">
                <path d="M129.456368,100.954473 C129.216194,76.8924064 149.116469,65.3525152 150.005412,64.7791759 C138.823916,48.4473557 121.40569,46.2100336 115.198705,45.9513815 C100.375182,44.4532775 86.2744129,54.6624278 78.7513012,54.6624278 C71.2471506,54.6624278 59.6380987,46.1729243 47.344215,46.3959514 C31.1870917,46.6356777 16.2892112,55.7731104 7.96973151,70.2164363 C-8.81719915,99.2916036 3.6707574,142.364414 20.0323636,165.944801 C28.0272732,177.48729 37.5606378,190.451067 50.0775937,189.987942 C62.1313029,189.507747 66.6894126,182.202774 81.2623512,182.202774 C95.8349179,182.202774 99.9316399,189.987942 112.687283,189.748958 C125.658191,189.508489 133.875801,177.985668 141.815686,166.407926 C150.996597,153.017392 154.776928,140.053244 155,139.387874 C154.711865,139.256507 129.706953,129.695285 129.456368,100.954473 Z M105.487998,30.3409669 C112.131461,22.2960332 116.615586,11.1346572 115.392406,0 C105.822978,0.388905876 94.2235927,6.36239622 87.3578005,14.3891463 C81.1972884,21.5096863 75.8045167,32.8744215 77.2496531,43.7864227 C87.9325834,44.6184141 98.8374705,38.367717 105.487998,30.3409669 Z" id="Shape"></path>
            </g>
            <g id="001-apple" transform="translate(334.000000, 10.000000)" fill="#666666" fill-opacity="0.16">
                <path d="M129.456368,100.954473 C129.216194,76.8924064 149.116469,65.3525152 150.005412,64.7791759 C138.823916,48.4473557 121.40569,46.2100336 115.198705,45.9513815 C100.375182,44.4532775 86.2744129,54.6624278 78.7513012,54.6624278 C71.2471506,54.6624278 59.6380987,46.1729243 47.344215,46.3959514 C31.1870917,46.6356777 16.2892112,55.7731104 7.96973151,70.2164363 C-8.81719915,99.2916036 3.6707574,142.364414 20.0323636,165.944801 C28.0272732,177.48729 37.5606378,190.451067 50.0775937,189.987942 C62.1313029,189.507747 66.6894126,182.202774 81.2623512,182.202774 C95.8349179,182.202774 99.9316399,189.987942 112.687283,189.748958 C125.658191,189.508489 133.875801,177.985668 141.815686,166.407926 C150.996597,153.017392 154.776928,140.053244 155,139.387874 C154.711865,139.256507 129.706953,129.695285 129.456368,100.954473 Z M105.487998,30.3409669 C112.131461,22.2960332 116.615586,11.1346572 115.392406,0 C105.822978,0.388905876 94.2235927,6.36239622 87.3578005,14.3891463 C81.1972884,21.5096863 75.8045167,32.8744215 77.2496531,43.7864227 C87.9325834,44.6184141 98.8374705,38.367717 105.487998,30.3409669 Z" id="Shape"></path>
            </g>
        </g>
    </g>
</svg>