<?xml version="1.0" encoding="UTF-8"?>
<svg width="288px" height="42px" viewBox="0 0 288 42" version="1.1" xmlns="http://www.w3.org/2000/svg" xmlns:xlink="http://www.w3.org/1999/xlink">
    <!-- Generator: Sketch 48.2 (47327) - http://www.bohemiancoding.com/sketch -->
    <title>logotipo</title>
    <desc>Created with Sketch.</desc>
    <defs>
        <style> 
            @import url('https://fonts.googleapis.com/css?family=Arimo:400,400i,700,700i');
        </style>
    </defs>
    <g id="Marca" stroke="none" stroke-width="1" fill="none" fill-rule="evenodd" transform="translate(-758.000000, -524.000000)">
        <g id="fundoEscuro" transform="translate(600.000000, 0.000000)">
            <g id="logotipo" transform="translate(158.000000, 524.000000)">
                <path d="M162.722656,40.6484375 C157.855444,40.6484375 154.145846,39.787118 151.59375,38.0644531 C149.041654,36.3417883 147.510419,33.6940283 147,30.1210938 L154.902344,28.78125 C155.285158,30.8046976 156.137363,32.2812454 157.458984,33.2109375 C158.780606,34.1406296 160.717435,34.6054688 163.269531,34.6054688 C169.558625,34.6054688 172.703125,32.7916848 172.703125,29.1640625 C172.703125,27.7057219 172.156255,26.5527386 171.0625,25.7050781 C169.968745,24.8574176 167.799495,24.0234416 164.554688,23.203125 C161.200504,22.3098914 158.716805,21.3802132 157.103516,20.4140625 C155.490226,19.4479118 154.25977,18.2675851 153.412109,16.8730469 C152.564449,15.4785087 152.140625,13.7695414 152.140625,11.7460938 C152.140625,8.51951512 153.5716,5.92188484 156.433594,3.953125 C159.295587,1.98436516 163.087216,1 167.808594,1 C172.147157,1 175.628893,1.78840357 178.253906,3.36523438 C180.878919,4.94206518 182.492184,7.24347445 183.09375,10.2695312 L175.21875,12.1015625 C174.817706,10.4609293 173.947272,9.15299967 172.607422,8.17773438 C171.267571,7.20246908 169.522146,6.71484375 167.371094,6.71484375 C165.110666,6.71484375 163.33334,7.13866764 162.039062,7.98632812 C160.744785,8.83398861 160.097656,9.99608637 160.097656,11.4726562 C160.097656,12.3294314 160.334633,13.0585907 160.808594,13.6601562 C161.282554,14.2617218 161.975256,14.7858051 162.886719,15.2324219 C163.798182,15.6790387 165.602851,16.2669234 168.300781,16.9960938 C171.199233,17.7981811 173.341139,18.5501267 174.726562,19.2519531 C176.111986,19.9537796 177.219397,20.7421831 178.048828,21.6171875 C178.878259,22.4921919 179.511717,23.494786 179.949219,24.625 C180.386721,25.755214 180.605469,27.0585864 180.605469,28.5351562 C180.605469,32.4726759 179.092463,35.4759011 176.066406,37.5449219 C173.040349,39.6139426 168.592477,40.6484375 162.722656,40.6484375 Z M193.949219,40.5390625 C191.688791,40.5390625 189.938808,40.0058647 188.699219,38.9394531 C187.459629,37.8730415 186.839844,36.3554786 186.839844,34.3867188 C186.839844,33.0924414 186.985676,31.6614662 187.277344,30.09375 L190.066406,15.7109375 L186.019531,15.7109375 L187.03125,10.515625 L191.460938,10.515625 L195.207031,3.5703125 L200.019531,3.5703125 L198.707031,10.515625 L204.230469,10.515625 L203.273438,15.7109375 L197.667969,15.7109375 L194.824219,30.3398438 C194.623697,31.3606822 194.523438,32.171872 194.523438,32.7734375 C194.523438,33.6119834 194.737628,34.2363261 195.166016,34.6464844 C195.594403,35.0566427 196.173173,35.2617188 196.902344,35.2617188 C197.48568,35.2617188 198.470045,35.1432304 199.855469,34.90625 L198.980469,39.8828125 C197.503899,40.3203147 195.826832,40.5390625 193.949219,40.5390625 Z M234.71875,21.4257812 C234.71875,25.1992376 233.975919,28.5533707 232.490234,31.4882812 C231.00455,34.4231918 228.899102,36.6835858 226.173828,38.2695312 C223.448554,39.8554767 220.372413,40.6484375 216.945312,40.6484375 C212.971334,40.6484375 209.826834,39.5774847 207.511719,37.4355469 C205.196603,35.2936091 204.039062,32.3632998 204.039062,28.6445312 C204.039062,24.9804504 204.763665,21.7356912 206.212891,18.9101562 C207.662117,16.0846213 209.726549,13.8925859 212.40625,12.3339844 C215.085951,10.7753828 218.139306,9.99609375 221.566406,9.99609375 C225.850282,9.99609375 229.11327,10.9941306 231.355469,12.9902344 C233.597667,14.9863381 234.71875,17.7981589 234.71875,21.4257812 Z M226.679688,22 C226.679688,17.4973733 224.783873,15.2460937 220.992188,15.2460937 C218.914052,15.2460937 217.259772,15.7929633 216.029297,16.8867188 C214.798822,17.9804742 213.837243,19.643869 213.144531,21.8769531 C212.451819,24.1100372 212.105469,26.2565001 212.105469,28.3164062 C212.105469,33.037784 214.001283,35.3984375 217.792969,35.3984375 C219.834646,35.3984375 221.452468,34.8834687 222.646484,33.8535156 C223.840501,32.8235626 224.779293,31.2604271 225.462891,29.1640625 C226.146488,27.0676979 226.552083,24.6797009 226.679688,22 Z M259.601562,16.7773438 C258.343744,16.5039049 257.304692,16.3671875 256.484375,16.3671875 C254.242176,16.3671875 252.414721,17.1601483 251.001953,18.7460938 C249.589186,20.3320392 248.563805,22.7656086 247.925781,26.046875 L245.164062,40.1015625 L237.480469,40.1015625 L241.882812,17.40625 C242.320315,15.2187391 242.703123,12.921887 243.03125,10.515625 L250.359375,10.515625 L249.757812,15.21875 L249.539062,16.5585938 L249.648438,16.5585938 C250.979173,14.1158732 252.29166,12.4069059 253.585938,11.4316406 C254.880215,10.4563753 256.365877,9.96875 258.042969,9.96875 C258.899744,9.96875 259.838537,10.0963529 260.859375,10.3515625 L259.601562,16.7773438 Z M268.105469,27.0859375 C267.977864,27.7786493 267.914062,28.5898391 267.914062,29.5195312 C267.914062,31.4518326 268.337886,32.9329376 269.185547,33.9628906 C270.033207,34.9928437 271.28645,35.5078125 272.945312,35.5078125 C275.625013,35.5078125 277.5664,33.9674633 278.769531,30.8867188 L285.46875,32.9101562 C284.101556,35.8086082 282.40626,37.822911 280.382812,38.953125 C278.359365,40.083339 275.707048,40.6484375 272.425781,40.6484375 C268.542949,40.6484375 265.507823,39.5957137 263.320312,37.4902344 C261.132802,35.3847551 260.039062,32.4453314 260.039062,28.671875 C260.039062,24.8984186 260.695306,21.5944152 262.007812,18.7597656 C263.320319,15.925116 265.184233,13.7513096 267.599609,12.2382812 C270.014986,10.7252529 272.808578,9.96875 275.980469,9.96875 C279.790384,9.96875 282.729807,10.9485579 284.798828,12.9082031 C286.867849,14.8678483 287.902344,17.6340967 287.902344,21.2070312 C287.902344,23.0117278 287.683596,24.9713436 287.246094,27.0859375 L268.105469,27.0859375 Z M280.792969,21.9726562 L280.875,20.4414062 C280.875,18.4908757 280.423833,17.0690149 279.521484,16.1757812 C278.619136,15.2825476 277.438809,14.8359375 275.980469,14.8359375 C274.23046,14.8359375 272.75847,15.4420512 271.564453,16.6542969 C270.370437,17.8665425 269.518232,19.6393112 269.007812,21.9726562 L280.792969,21.9726562 Z" id="GloboStore" fill="#AA344E"></path>
                <path d="M17.5273438,41.125 C11.9674201,41.125 7.65626531,39.7031392 4.59375,36.859375 C1.53123469,34.0156108 0,30.0325777 0,24.9101562 C0,20.3710711 0.95702168,16.3105648 2.87109375,12.7285156 C4.78516582,9.14646646 7.49672725,6.37566084 11.0058594,4.41601562 C14.5149915,2.45637041 18.5299253,1.4765625 23.0507812,1.4765625 C27.0976765,1.4765625 30.4153516,2.24217984 33.0039062,3.7734375 C35.5924609,5.30469516 37.3880158,7.56508922 38.390625,10.5546875 L33.1132812,12.03125 C32.4387987,9.93488535 31.2174568,8.36263545 29.4492188,7.31445312 C27.6809807,6.2662708 25.4388157,5.7421875 22.7226562,5.7421875 C19.2226388,5.7421875 16.1556121,6.52603383 13.5214844,8.09375 C10.8873566,9.66146617 8.8684966,11.8899595 7.46484375,14.7792969 C6.0611909,17.6686342 5.359375,21.0090956 5.359375,24.8007812 C5.359375,28.6471546 6.43488508,31.6230363 8.5859375,33.7285156 C10.7369899,35.8339949 13.7721158,36.8867188 17.6914062,36.8867188 C20.2070438,36.8867188 22.6132698,36.5266963 24.9101562,35.8066406 C27.2070427,35.0865849 29.2031165,34.0247466 30.8984375,32.6210938 L32.2929688,25.6757812 L20.78125,25.6757812 L21.65625,21.3007812 L37.9804688,21.3007812 L35.2460938,34.8359375 C32.6939977,37.0234484 29.9733217,38.6184846 27.0839844,39.6210938 C24.194647,40.6237029 21.009132,41.125 17.5273438,41.125 Z M41.6992187,40.578125 L49.5742187,0 L54.4960937,0 L46.59375,40.578125 L41.6992187,40.578125 Z M82.6054688,21.9023438 C82.6054688,24.2721473 82.2408891,26.7376174 81.5117188,29.2988281 C80.7825484,31.8600388 79.7389391,34.029288 78.3808594,35.8066406 C77.0227797,37.5839933 75.3593848,38.9147091 73.390625,39.7988281 C71.4218652,40.6829471 69.1797001,41.125 66.6640625,41.125 C63.091128,41.125 60.2656354,40.0494899 58.1875,37.8984375 C56.1093646,35.7473851 55.0703125,32.8216331 55.0703125,29.1210938 C55.1432295,25.4023252 55.817702,22.102879 57.09375,19.2226562 C58.369798,16.3424335 60.1380095,14.1640699 62.3984375,12.6875 C64.6588655,11.2109301 67.4570146,10.4726563 70.7929688,10.4726563 C74.6211129,10.4726563 77.5468649,11.4706931 79.5703125,13.4667969 C81.5937601,15.4629006 82.6054688,18.2747214 82.6054688,21.9023438 Z M77.5195312,21.9023438 C77.5195312,16.688776 75.2591372,14.0820312 70.7382812,14.0820312 C68.2773314,14.0820312 66.3040439,14.7154885 64.8183594,15.9824219 C63.3326749,17.2493553 62.1796916,19.1679559 61.359375,21.7382812 C60.5390584,24.3086066 60.1289062,26.796863 60.1289062,29.203125 C60.1289062,31.9010552 60.7122337,33.9563731 61.8789062,35.3691406 C63.0455788,36.7819081 64.7408743,37.4882812 66.9648438,37.4882812 C68.8424573,37.4882812 70.3509058,37.1738313 71.4902344,36.5449219 C72.629563,35.9160125 73.6275999,34.9316473 74.484375,33.5917969 C75.3411501,32.2519464 76.0384088,30.5429791 76.5761719,28.4648438 C77.113935,26.3867084 77.428385,24.1992302 77.5195312,21.9023438 Z M104.726562,10.4453125 C107.588556,10.4453125 109.817049,11.306632 111.412109,13.0292969 C113.007169,14.7519617 113.804688,17.1171725 113.804688,20.125 C113.804688,23.8255393 113.244146,27.412092 112.123047,30.8847656 C111.001948,34.3574392 109.42514,36.9322833 107.392578,38.609375 C105.360016,40.2864667 102.766943,41.125 99.6132812,41.125 C97.3710825,41.125 95.5481841,40.6510464 94.1445312,39.703125 C92.7408784,38.7552036 91.7473988,37.4244877 91.1640625,35.7109375 L91.0820312,35.7109375 C90.9544264,36.38542 90.7356786,37.3515562 90.4257812,38.609375 C90.1158839,39.8671938 89.9427085,40.5234372 89.90625,40.578125 L85.1757812,40.578125 C85.2669275,40.3046861 85.4446601,39.5572978 85.7089844,38.3359375 C85.9733086,37.1145772 86.2421861,35.8294338 86.515625,34.4804688 L93.2148438,0 L98.1367188,0 L95.8671875,11.5664062 C95.7213534,12.4049521 95.4114607,13.680981 94.9375,15.3945312 L95.046875,15.3945312 C96.3776108,13.6627518 97.7812426,12.4049518 99.2578125,11.6210938 C100.734382,10.8372357 102.557281,10.4453125 104.726562,10.4453125 Z M103.304687,14.2460938 C101.499991,14.2460938 99.9550846,14.6152307 98.6699219,15.3535156 C97.3847592,16.0918006 96.2955774,17.2037686 95.4023437,18.6894531 C94.5091101,20.1751376 93.8072942,22.034494 93.296875,24.2675781 C92.7864558,26.5006622 92.53125,28.5012932 92.53125,30.2695312 C92.53125,32.5481885 93.1100203,34.3209572 94.2675781,35.5878906 C95.425136,36.854824 97.0338439,37.4882812 99.09375,37.4882812 C101.354178,37.4882812 103.140618,36.8001371 104.453125,35.4238281 C105.765632,34.0475192 106.795569,31.860041 107.542969,28.8613281 C108.290368,25.8626152 108.664062,23.2421987 108.664062,21 C108.664062,18.7578013 108.235681,17.0716202 107.378906,15.9414062 C106.522131,14.8111923 105.164072,14.2460938 103.304687,14.2460938 Z M144.894531,21.9023438 C144.894531,24.2721473 144.529952,26.7376174 143.800781,29.2988281 C143.071611,31.8600388 142.028002,34.029288 140.669922,35.8066406 C139.311842,37.5839933 137.648447,38.9147091 135.679688,39.7988281 C133.710928,40.6829471 131.468763,41.125 128.953125,41.125 C125.38019,41.125 122.554698,40.0494899 120.476562,37.8984375 C118.398427,35.7473851 117.359375,32.8216331 117.359375,29.1210938 C117.432292,25.4023252 118.106764,22.102879 119.382812,19.2226562 C120.658861,16.3424335 122.427072,14.1640699 124.6875,12.6875 C126.947928,11.2109301 129.746077,10.4726563 133.082031,10.4726563 C136.910175,10.4726563 139.835927,11.4706931 141.859375,13.4667969 C143.882823,15.4629006 144.894531,18.2747214 144.894531,21.9023438 Z M139.808594,21.9023438 C139.808594,16.688776 137.5482,14.0820312 133.027344,14.0820312 C130.566394,14.0820312 128.593106,14.7154885 127.107422,15.9824219 C125.621737,17.2493553 124.468754,19.1679559 123.648438,21.7382812 C122.828121,24.3086066 122.417969,26.796863 122.417969,29.203125 C122.417969,31.9010552 123.001296,33.9563731 124.167969,35.3691406 C125.334641,36.7819081 127.029937,37.4882812 129.253906,37.4882812 C131.13152,37.4882812 132.639968,37.1738313 133.779297,36.5449219 C134.918625,35.9160125 135.916662,34.9316473 136.773438,33.5917969 C137.630213,32.2519464 138.327471,30.5429791 138.865234,28.4648438 C139.402997,26.3867084 139.717447,24.1992302 139.808594,21.9023438 Z" id="GloboStore" fill="#FFFFFF"></path>
            </g>
        </g>
    </g>
</svg>