<?xml version="1.0" encoding="UTF-8"?>
<svg width="180px" height="21px" viewBox="0 0 180 21" version="1.1" xmlns="http://www.w3.org/2000/svg" xmlns:xlink="http://www.w3.org/1999/xlink">
    <!-- Generator: Sketch 48.2 (47327) - http://www.bohemiancoding.com/sketch -->
    <title>logotipoAplicacoesTecnologia</title>
    <desc>Created with Sketch.</desc>
    <defs></defs>
    <g id="Page-1" stroke="none" stroke-width="1" fill="none" fill-rule="evenodd">
        <g id="logotipoAplicacoesTecnologia" fill="#FFFFFF" fill-rule="nonzero">
            <path d="M88.297604,20.4182914 C82.7364439,20.3956044 78.2194199,15.8355193 78.2421185,10.2998937 C78.2648172,4.76426799 82.8726356,0.158808933 88.3883985,0.226869904 C94.4943253,0.317617866 98.6027743,5.30875576 98.4665826,10.6855725 C98.3303909,15.9716413 93.7679697,20.4409784 88.297604,20.4182914 Z M88.3203026,15.2456576 L88.8196721,15.2456576 C90.9533417,15.2456576 93.0643127,15.2456576 95.1979823,14.9961007 C95.8562421,14.9053527 96.1059269,14.7238568 96.1513241,14.111308 C96.3556116,11.7064871 96.332913,9.30166608 96.1740227,6.89684509 C96.1059269,5.83055654 95.924338,5.71712159 94.8348045,5.62637363 C91.8385876,5.35412974 88.8423707,5.35412974 85.8234552,5.42219071 C84.4388398,5.4448777 83.0769231,5.55831266 81.6923077,5.64906062 C80.7616646,5.71712159 80.557377,5.96667848 80.4892812,6.91953208 C80.3530895,9.2336051 80.3530895,11.5476781 80.4892812,13.8390642 C80.5346784,14.7011698 80.738966,14.9053527 81.6015132,14.9961007 C83.8486759,15.2456576 86.0958386,15.2456576 88.3203026,15.2456576 Z" id="Shape"></path>
            <path d="M125.909206,7.12371499 L125.909206,12.4778447 C125.909206,12.9088976 125.750315,13.2492024 125.34174,13.4080113 C125.02396,13.5441333 124.728878,13.4533853 124.456494,13.2265154 C124.252207,13.0450195 124.161412,12.8181496 124.161412,12.5232187 L124.161412,5.73980858 C124.161412,5.17263382 124.456494,4.78695498 125.001261,4.60545906 C125.568726,4.42396313 126.045397,4.62814605 126.385876,5.08188586 C127.361917,6.32967033 128.315259,7.60014179 129.291299,8.84792627 C129.722573,9.41510103 130.199243,9.9595888 130.562421,10.6175115 L130.562421,8.34881248 L130.562421,5.60368664 C130.562421,4.94576391 130.925599,4.5147111 131.447667,4.53739809 C131.947037,4.56008508 132.310214,4.9684509 132.310214,5.58099965 L132.310214,12.1829139 C132.310214,12.7500886 132.06053,13.1584544 131.538462,13.3626374 C130.993695,13.5668203 130.539723,13.4080113 130.199243,12.9542715 C128.973518,11.3434952 127.725095,9.73271889 126.499369,8.09925558 C126.295082,7.84969869 126.15889,7.55476781 125.909206,7.12371499 Z" id="Shape"></path>
            <path d="M59.2433796,9.09748316 C59.2433796,11.6384261 57.1778058,13.6802552 54.6355612,13.6575682 C52.1160151,13.6348812 50.0277427,11.5249911 50.0504414,9.02942219 C50.07314,6.51116625 52.1387137,4.44665012 54.6582598,4.44665012 C57.223203,4.46933711 59.2433796,6.51116625 59.2433796,9.09748316 Z M54.6582598,6.26160936 C53.0693569,6.26160936 51.8436318,7.46401985 51.8209332,9.02942219 C51.8209332,10.6175115 53.0466583,11.865296 54.6582598,11.865296 C56.2698613,11.865296 57.4955864,10.6401985 57.4728878,9.02942219 C57.4728878,7.44133286 56.2471627,6.26160936 54.6582598,6.26160936 Z" id="Shape"></path>
            <path d="M142.501892,9.05210918 C142.501892,11.5930521 140.459016,13.6575682 137.93947,13.6575682 C135.397226,13.6575682 133.286255,11.5476781 133.308953,9.02942219 C133.331652,6.51116625 135.419924,4.44665012 137.93947,4.44665012 C140.459016,4.46933711 142.501892,6.51116625 142.501892,9.05210918 Z M137.916772,6.26160936 C136.327869,6.26160936 135.079445,7.46401985 135.079445,9.02942219 C135.056747,10.6175115 136.30517,11.865296 137.894073,11.865296 C139.505675,11.865296 140.7314,10.6628855 140.7314,9.05210918 C140.7314,7.46401985 139.528373,6.26160936 137.916772,6.26160936 Z" id="Shape"></path>
            <path d="M157.619168,9.07479617 C157.619168,11.6157391 155.576293,13.6575682 153.034048,13.6575682 C150.514502,13.6575682 148.448928,11.5703651 148.42623,9.05210918 C148.403531,6.53385324 150.514502,4.42396313 153.079445,4.44665012 C155.598991,4.46933711 157.619168,6.53385324 157.619168,9.07479617 Z M153.056747,6.26160936 C151.467844,6.26160936 150.242119,7.46401985 150.21942,9.02942219 C150.21942,10.6175115 151.445145,11.865296 153.034048,11.865296 C154.645649,11.865296 155.871375,10.6401985 155.871375,9.02942219 C155.848676,7.46401985 154.645649,6.26160936 153.056747,6.26160936 Z" id="Shape"></path>
            <path d="M165.064313,8.80255229 L166.131148,8.80255229 C166.925599,8.82523928 167.311475,9.30166608 167.220681,10.0957107 C166.993695,11.774548 165.745271,13.1130805 164.110971,13.4080113 C160.774275,14.0205601 158.07314,11.2754342 158.776797,7.96313364 C159.457755,4.76426799 163.679697,3.40304856 166.131148,5.58099965 C166.539723,5.94399149 166.630517,6.42041829 166.335435,6.76072315 C166.017654,7.14640199 165.586381,7.16908898 165.10971,6.78341014 C163.6343,5.6944346 161.614124,6.10280043 160.933165,7.69088976 C160.479193,8.7798653 160.52459,9.91421482 161.273644,10.8670684 C162.022699,11.797235 163.044136,11.9787309 164.156368,11.7064871 C164.633039,11.5930521 165.018916,11.3434952 165.223203,10.8670684 C165.359395,10.5494505 165.313997,10.3225806 164.882724,10.3225806 C164.542245,10.3225806 164.201765,10.3452676 163.883985,10.3225806 C163.407314,10.2772067 163.089533,9.93690181 163.112232,9.52853598 C163.157629,9.07479617 163.430013,8.82523928 163.883985,8.80255229 L163.997478,8.80255229 C164.360656,8.80255229 164.723834,8.80255229 165.064313,8.80255229 Z" id="Shape"></path>
            <path d="M175.778058,4.44665012 C176.413619,4.42396313 176.867591,4.78695498 177.162673,5.53562566 C177.934426,7.48670684 178.68348,9.46047501 179.455233,11.4342432 C179.546028,11.6838001 179.659521,11.956044 179.750315,12.2282878 C179.909206,12.7727756 179.636822,13.2492024 179.114754,13.4306983 C178.615385,13.6121943 178.138714,13.4080113 177.911728,12.9088976 C177.889029,12.8862106 177.86633,12.8408366 177.86633,12.7954626 C177.684741,11.7064871 177.026482,11.3888692 176.005044,11.5703651 C175.800757,11.6157391 175.596469,11.5703651 175.392182,11.5703651 C174.121059,11.5703651 174.121059,11.5703651 173.689786,12.7500886 C173.462799,13.3626374 172.986129,13.6121943 172.418663,13.4080113 C171.873897,13.2038284 171.64691,12.7274016 171.873897,12.1375399 C172.327869,10.8670684 172.827238,9.61928394 173.303909,8.37149947 C173.667087,7.41864587 174.030265,6.46579227 174.416141,5.51293867 C174.665826,4.83232896 175.142497,4.44665012 175.778058,4.44665012 Z M175.687264,6.60191421 C175.460277,7.66820276 175.119798,8.59836937 174.779319,9.52853598 C174.620429,9.98227579 174.665826,10.1864587 175.210593,10.1410847 C175.551072,10.1183977 175.91425,10.1183977 176.277427,10.1410847 C176.708701,10.1637717 176.844893,10.0503368 176.686003,9.59659695 C176.345523,8.66643034 176.050441,7.69088976 175.687264,6.60191421 Z" id="Shape"></path>
            <path d="M37.3846154,4.44665012 C37.8839849,4.46933711 38.3152585,4.76426799 38.5422446,5.30875576 C39.4501892,7.60014179 40.3354351,9.89152783 41.1979823,12.1829139 C41.4022699,12.7274016 41.1298865,13.2038284 40.630517,13.4080113 C40.1084489,13.6121943 39.6317781,13.4080113 39.3820933,12.8862106 C39.3820933,12.8635236 39.3593947,12.8635236 39.3593947,12.8408366 C39.1778058,11.6838001 38.4741488,11.4115562 37.407314,11.5703651 C36.9760404,11.6384261 36.5220681,11.5930521 36.0680958,11.5703651 C35.704918,11.5476781 35.5006305,11.6838001 35.4098361,12.0241049 C35.3417402,12.2963488 35.2509458,12.5685927 35.1374527,12.8181496 C34.9331652,13.3626374 34.4564943,13.5895073 33.9344262,13.4306983 C33.4123581,13.2718894 33.1399748,12.7954626 33.3215637,12.2282878 C33.5712484,11.4569302 33.889029,10.6855725 34.184111,9.91421482 C34.7515763,8.46224743 35.296343,6.98759305 35.8638083,5.53562566 C36.1588903,4.83232896 36.6355612,4.44665012 37.3846154,4.44665012 Z M37.1803279,6.62460121 C36.9306431,7.71357675 36.5674653,8.68911733 36.2496847,9.66465792 C36.1361917,10.0276498 36.2042875,10.1864587 36.6128625,10.1637717 C37.0214376,10.1410847 37.4300126,10.1410847 37.8385876,10.1637717 C38.2471627,10.1864587 38.3379571,10.0503368 38.2017654,9.66465792 C37.8612863,8.68911733 37.5435057,7.69088976 37.1803279,6.62460121 Z" id="Shape"></path>
            <path d="M4.10844893,4.44665012 C4.60781841,4.46933711 5.03909206,4.76426799 5.26607818,5.30875576 C6.1740227,7.5774548 7.03656999,9.84615385 7.92181589,12.1375399 C8.14880202,12.7047146 7.87641866,13.2038284 7.35435057,13.4080113 C6.80958386,13.6121943 6.24211854,13.4080113 6.10592686,12.8181496 C5.85624212,11.6611131 5.17528373,11.4115562 4.13114754,11.5703651 C3.67717528,11.6384261 3.20050441,11.5930521 2.72383354,11.5703651 C2.40605296,11.5703651 2.24716267,11.6838001 2.15636822,11.9787309 C2.06557377,12.2736618 1.97477932,12.5912797 1.86128625,12.8862106 C1.67969735,13.3626374 1.22572509,13.5668203 0.726355612,13.4306983 C0.226986129,13.2945764 -0.0680958386,12.8862106 0.0453972257,12.3644098 C0.136191677,11.956044 0.295081967,11.5930521 0.431273644,11.2073733 C1.15762926,9.32435307 1.88398487,7.44133286 2.61034048,5.58099965 C2.88272383,4.83232896 3.3593947,4.44665012 4.10844893,4.44665012 Z M3.92686003,6.71534917 C3.65447667,7.71357675 3.31399748,8.66643034 2.97351828,9.61928394 C2.83732661,10.0049628 2.90542245,10.1864587 3.33669609,10.1637717 C3.6998739,10.1410847 4.08575032,10.1410847 4.44892812,10.1637717 C4.92559899,10.2091457 5.03909206,10.0730238 4.88020177,9.59659695 C4.56242119,8.64374335 4.19924338,7.71357675 3.92686003,6.71534917 Z" id="Shape"></path>
            <path d="M46.6910467,13.5214463 C46.9180328,13.6121943 47.0315259,13.6575682 47.1450189,13.7029422 C47.4627995,13.8617512 47.5989912,14.133995 47.5762926,14.4742999 C47.5535939,14.7919178 47.3947037,15.0414747 47.0769231,15.1549096 C46.6229508,15.3137185 46.1462799,15.2683446 45.6923077,15.1322226 C45.5334174,15.0868486 45.3972257,14.9961007 45.4199243,14.8372917 C45.442623,14.6331088 45.6015132,14.5650479 45.7831021,14.5650479 C46.0100883,14.5650479 46.2370744,14.6104218 46.4413619,14.6104218 C46.5775536,14.6104218 46.7137453,14.5650479 46.7591425,14.4062389 C46.8045397,14.224743 46.668348,14.202056 46.5321564,14.133995 C46.4413619,14.0886211 46.259773,14.0432471 46.259773,13.9751861 C46.1916772,13.3172634 45.6696091,13.4306983 45.261034,13.3399504 C42.9457755,12.8635236 41.5611602,11.0258773 41.6746532,8.64374335 C41.7881463,6.46579227 43.4678436,4.78695498 45.7604035,4.56008508 C46.6910467,4.46933711 47.6216898,4.56008508 48.5069357,4.90038993 C49.0970996,5.12725984 49.3467844,5.53562566 49.1424968,6.01205246 C48.9609079,6.46579227 48.5523329,6.60191421 47.962169,6.35235732 C47.5989912,6.21623538 47.258512,6.12548742 46.8726356,6.08011343 C45.3972257,5.89861751 44.1034048,6.71534917 43.7629256,8.0538816 C43.331652,9.64197093 43.8991173,11.1393123 45.1702396,11.6838001 C45.964691,12.0241049 46.7818411,11.9787309 47.5762926,11.7291741 C47.7805801,11.6611131 47.962169,11.5703651 48.1664565,11.5249911 C48.5977301,11.4115562 48.9609079,11.5249911 49.1424968,11.956044 C49.3240858,12.3644098 49.1197982,12.6820276 48.779319,12.9088976 C48.3934426,13.1584544 47.962169,13.2718894 47.5308953,13.3626374 C47.3039092,13.4080113 47.0542245,13.4533853 46.6910467,13.5214463 Z" id="Shape"></path>
            <path d="M8.89785624,9.02942219 L8.89785624,5.85324353 C8.89785624,5.01382488 9.21563682,4.71889401 10.0554855,4.69620702 C10.6910467,4.69620702 11.3266078,4.67352003 11.962169,4.76426799 C13.5964691,5.01382488 14.4363178,5.89861751 14.4136192,7.41864587 C14.4136192,8.89330025 13.5056747,9.86884084 11.9167718,10.0730238 C11.7351828,10.0957107 11.5535939,10.1183977 11.3493064,10.0957107 C10.96343,10.0730238 10.8726356,10.2998937 10.8726356,10.6175115 C10.8726356,11.2300603 10.8953342,11.842609 10.8499369,12.4551577 C10.8045397,13.1357675 10.2824716,13.5668203 9.69230769,13.4533853 C9.19293821,13.3626374 8.89785624,12.9542715 8.87515763,12.2736618 C8.87515763,11.1846863 8.89785624,10.1183977 8.89785624,9.02942219 Z M10.8953342,7.39595888 L10.8953342,8.0538816 C10.8726356,8.5303084 11.1223203,8.62105636 11.5308953,8.5303084 C12.3480454,8.34881248 12.779319,7.32789791 12.2799496,6.6472882 C12.0075662,6.26160936 11.5989912,6.10280043 11.1450189,6.19354839 C10.7137453,6.30698334 10.9407314,6.71534917 10.8953342,7.01028004 C10.8726356,7.14640199 10.8953342,7.28252393 10.8953342,7.39595888 Z" id="Shape"></path>
            <path d="M60.5145019,9.09748316 L60.5145019,5.85324353 C60.5145019,5.05919887 60.7868852,4.78695498 61.6040353,4.78695498 L64.6910467,4.78695498 C65.3039092,4.78695498 65.6897856,5.08188586 65.6897856,5.53562566 C65.6897856,6.01205246 65.3039092,6.32967033 64.668348,6.32967033 L62.8297604,6.32967033 C62.5346784,6.32967033 62.3984868,6.44310528 62.3984868,6.76072315 C62.4211854,8.34881248 62.2395965,8.00850762 63.6015132,8.0538816 L64.8272383,8.0538816 C65.3493064,8.07656859 65.7124842,8.39418646 65.7124842,8.80255229 C65.7124842,9.2336051 65.3493064,9.55122297 64.8499369,9.57390996 C64.2143758,9.59659695 63.5788146,9.59659695 62.9432535,9.57390996 C62.5800757,9.57390996 62.3757881,9.66465792 62.3984868,10.0730238 C62.4211854,10.5494505 62.4211854,11.0031904 62.3984868,11.4796172 C62.3757881,11.842609 62.5119798,11.9787309 62.8751576,11.9787309 C63.4880202,11.956044 64.1008827,11.9787309 64.7137453,11.9787309 C65.3039092,11.9787309 65.6897856,12.2963488 65.6897856,12.7500886 C65.6897856,13.1584544 65.3039092,13.4987593 64.7364439,13.4987593 L61.4905422,13.4987593 C60.8322825,13.4987593 60.5372005,13.2038284 60.5145019,12.5459057 C60.4918033,11.3661822 60.5145019,10.2318327 60.5145019,9.09748316 Z" id="Shape"></path>
            <path d="M108.907945,9.09748316 L108.907945,5.85324353 C108.907945,5.05919887 109.180328,4.78695498 109.997478,4.78695498 L113.084489,4.78695498 C113.697352,4.78695498 114.083228,5.08188586 114.083228,5.53562566 C114.083228,6.01205246 113.697352,6.32967033 113.061791,6.32967033 L111.223203,6.32967033 C110.928121,6.32967033 110.791929,6.44310528 110.791929,6.76072315 C110.814628,8.34881248 110.633039,8.03119461 111.994956,8.0538816 L113.220681,8.0538816 C113.742749,8.07656859 114.105927,8.39418646 114.105927,8.80255229 C114.105927,9.2336051 113.742749,9.55122297 113.24338,9.57390996 C112.607818,9.59659695 111.972257,9.59659695 111.336696,9.57390996 C110.973518,9.57390996 110.769231,9.66465792 110.791929,10.0730238 C110.814628,10.5494505 110.814628,11.0031904 110.791929,11.4796172 C110.769231,11.842609 110.905422,11.9787309 111.2686,11.9787309 C111.881463,11.956044 112.494325,11.9787309 113.107188,11.9787309 C113.697352,11.9787309 114.083228,12.2963488 114.083228,12.7500886 C114.083228,13.1584544 113.697352,13.4987593 113.129887,13.4987593 L109.883985,13.4987593 C109.225725,13.4987593 108.930643,13.2038284 108.907945,12.5459057 C108.907945,11.3661822 108.907945,10.2318327 108.907945,9.09748316 Z" id="Shape"></path>
            <path d="M120.075662,13.4760723 C116.920555,13.4533853 114.832282,10.9351294 115.535939,7.91775966 C115.944515,6.21623538 117.079445,5.17263382 118.736444,4.71889401 C119.894073,4.40127614 121.074401,4.46933711 122.209332,4.87770294 C122.867591,5.10457285 123.117276,5.49025168 122.935687,5.98936547 C122.776797,6.46579227 122.345523,6.57922722 121.709962,6.35235732 C121.25599,6.1708614 120.779319,6.08011343 120.27995,6.08011343 C118.781841,6.10280043 117.760404,6.91953208 117.48802,8.32612549 C117.192938,9.89152783 117.760404,11.2073733 118.986129,11.7064871 C119.757881,12.0241049 120.552333,11.9787309 121.346784,11.751861 C121.505675,11.7064871 121.664565,11.6384261 121.823455,11.5930521 C122.345523,11.4115562 122.7314,11.5476781 122.912989,11.956044 C123.094578,12.3417228 122.912989,12.7500886 122.413619,12.9996455 C121.664565,13.3399504 120.892812,13.4987593 120.075662,13.4760723 Z" id="Shape"></path>
            <path d="M29.7578815,4.56008508 C30.4615385,4.53739809 31.1424968,4.67352003 31.778058,4.90038993 C32.3909206,5.12725984 32.6406053,5.51293867 32.481715,5.98936547 C32.3228247,6.46579227 31.9142497,6.60191421 31.2786885,6.37504431 C30.3253468,6.01205246 29.372005,5.96667848 28.4640605,6.42041829 C27.1929382,7.03296703 26.6481715,8.64374335 27.147541,10.1864587 C27.5334174,11.4115562 28.7364439,12.0921659 30.1210593,11.91067 C30.5523329,11.865296 30.9609079,11.751861 31.369483,11.5930521 C31.8234552,11.4115562 32.2320303,11.4569302 32.481715,11.933357 C32.6860025,12.3190358 32.5044136,12.7047146 32.0277427,12.9996455 C30.5296343,13.8617512 27.9419924,13.5895073 26.5800757,12.4551577 C25.1727617,11.2754342 24.6506936,9.32435307 25.2408575,7.53208082 C25.8083228,5.80786955 27.4653216,4.65083304 29.4627995,4.58277207 C29.5535939,4.56008508 29.667087,4.56008508 29.7578815,4.56008508 Z" id="Shape"></path>
            <path d="M69.5031526,13.4760723 C68.7087011,13.5214463 67.9369483,13.2945764 67.2786885,12.7274016 C66.8701135,12.3644098 66.779319,12.0241049 67.0517024,11.6611131 C67.3240858,11.2981212 67.778058,11.2300603 68.186633,11.5249911 C68.776797,11.956044 69.3896595,12.1829139 70.1160151,11.956044 C70.5245902,11.819922 70.7969735,11.5930521 70.887768,11.1619993 C70.9558638,10.7536335 70.7515763,10.4587026 70.4337957,10.2772067 C69.7074401,9.84615385 68.9583859,9.483162 68.2547289,9.02942219 C67.4602774,8.55299539 66.9609079,7.84969869 67.0063052,6.8741581 C67.0290038,6.3977313 67.1878941,5.96667848 67.482976,5.58099965 C68.4590164,4.40127614 70.6607818,4.17440624 71.8638083,5.12725984 C72.3404792,5.51293867 72.4539723,5.94399149 72.1361917,6.32967033 C71.8184111,6.71534917 71.3871375,6.73803616 70.9104666,6.32967033 C70.4337957,5.9213045 69.889029,5.87593052 69.3442623,6.08011343 C68.6860025,6.30698334 68.5498108,6.96490606 69.0264817,7.46401985 C69.3442623,7.78163772 69.7301387,7.94044665 70.1387137,8.12194257 C70.6834805,8.34881248 71.1828499,8.59836937 71.6595208,8.96136122 C72.408575,9.55122297 72.7717528,10.2998937 72.6355612,11.2527473 C72.4993695,12.2282878 71.9092055,12.8635236 71.0239596,13.2265154 C70.5699874,13.4306983 70.0706179,13.4760723 69.5031526,13.4760723 Z" id="Shape"></path>
            <path d="M103.868852,9.61928394 C103.868852,8.68911733 103.846154,7.75895073 103.868852,6.82878412 C103.868852,6.44310528 103.732661,6.28429635 103.346784,6.30698334 C103.0971,6.32967033 102.870113,6.32967033 102.620429,6.30698334 C102.098361,6.28429635 101.757881,5.96667848 101.757881,5.53562566 C101.757881,5.12725984 102.098361,4.78695498 102.620429,4.78695498 C103.709962,4.76426799 104.822194,4.78695498 105.934426,4.78695498 C106.297604,4.78695498 106.68348,4.76426799 107.046658,4.78695498 C107.546028,4.80964197 107.886507,5.14994683 107.84111,5.53562566 C107.795712,6.01205246 107.500631,6.26160936 107.02396,6.30698334 L106.978562,6.30698334 C105.730139,6.3977313 105.730139,6.3977313 105.730139,7.66820276 L105.730139,12.3644098 C105.730139,13.0223325 105.366961,13.4533853 104.867591,13.4760723 C104.322825,13.4987593 103.891551,13.0677065 103.868852,12.4324708 L103.868852,9.61928394 Z" id="Shape"></path>
            <path d="M143.546028,8.96136122 L143.546028,5.60368664 C143.546028,4.9684509 143.909206,4.56008508 144.453972,4.56008508 C144.998739,4.53739809 145.430013,4.92307692 145.452711,5.55831266 C145.498108,6.94221907 145.47541,8.32612549 145.47541,9.68734491 C145.47541,10.1637717 145.498108,10.6628855 145.47541,11.1393123 C145.452711,11.5703651 145.611602,11.751861 146.042875,11.7291741 C146.519546,11.7064871 147.018916,11.7064871 147.495586,11.7291741 C148.08575,11.751861 148.42623,12.0467919 148.448928,12.5232187 C148.448928,13.0223325 148.08575,13.3626374 147.472888,13.3626374 C146.496847,13.3626374 145.543506,13.3853244 144.567465,13.3626374 C143.886507,13.3626374 143.546028,12.9996455 143.523329,12.3190358 C143.523329,11.2073733 143.546028,10.0730238 143.546028,8.96136122 Z" id="Shape"></path>
            <path d="M15.2307692,8.91598724 L15.2307692,5.73980858 C15.2307692,5.01382488 15.5712484,4.58277207 16.1387137,4.56008508 C16.7288777,4.53739809 17.1374527,4.99113789 17.1601513,5.71712159 C17.1828499,7.44133286 17.1601513,9.14285714 17.1601513,10.8670684 C17.1601513,11.7291741 17.1601513,11.7291741 18,11.7291741 C18.4312736,11.7291741 18.8625473,11.7064871 19.2938209,11.7291741 C19.8385876,11.751861 20.1563682,12.0921659 20.1336696,12.5685927 C20.110971,13.0223325 19.7931904,13.3399504 19.2938209,13.3399504 C18.2723834,13.3626374 17.2509458,13.3626374 16.2068096,13.3399504 C15.5712484,13.3399504 15.2307692,12.9769585 15.2307692,12.2963488 C15.2307692,11.1846863 15.2307692,10.0503368 15.2307692,8.91598724 Z" id="Shape"></path>
            <path d="M170.625473,9.02942219 L170.625473,12.3190358 C170.625473,13.0450195 170.262295,13.4760723 169.69483,13.4760723 C169.127364,13.4760723 168.764187,13.0450195 168.764187,12.3190358 L168.764187,5.71712159 C168.764187,5.01382488 169.150063,4.56008508 169.69483,4.56008508 C170.262295,4.56008508 170.625473,4.99113789 170.625473,5.71712159 L170.625473,9.02942219 Z" id="Shape"></path>
            <path d="M21.6317781,8.98404821 L21.6317781,5.6944346 C21.6317781,5.03651188 21.9949559,4.58277207 22.5397226,4.56008508 C23.1071879,4.53739809 23.4930643,4.99113789 23.4930643,5.67174761 L23.4930643,12.3190358 C23.4930643,12.9996455 23.1525851,13.4306983 22.5851198,13.4533853 C21.9949559,13.4760723 21.6317781,13.0450195 21.6090794,12.3417228 C21.6090794,11.2300603 21.6317781,10.1183977 21.6317781,8.98404821 Z" id="Shape"></path>
            <path d="M54.1361917,2.42750798 C54.5220681,2.42750798 54.8625473,2.58631691 55.2030265,2.74512584 C55.4527112,2.88124778 55.6796974,2.90393477 55.9066835,2.65437788 C56.0882724,2.42750798 56.3379571,2.33676001 56.5876419,2.54094293 C56.8600252,2.74512584 56.7919294,3.04005672 56.6784363,3.3123006 C56.4741488,3.74335342 55.9520807,3.99291032 55.4527112,3.87947536 C55.1803279,3.81141439 54.9306431,3.69797944 54.6582598,3.60723148 C54.3631778,3.49379653 54.0907945,3.44842255 53.8638083,3.74335342 C53.704918,3.94753633 53.5006305,4.01559731 53.2736444,3.90216235 C53.0239596,3.76604041 53.001261,3.51648352 53.0466583,3.26692662 C53.0920555,2.74512584 53.5460277,2.42750798 54.1361917,2.42750798 Z" id="Shape"></path>
            <path d="M92.4968474,10.3452676 C92.4968474,12.6139667 90.6355612,14.4742999 88.3430013,14.4742999 C86.0958386,14.4742999 84.1664565,12.5685927 84.1891551,10.3452676 C84.2118537,8.0538816 86.0504414,6.23892237 88.3430013,6.23892237 C90.6809584,6.23892237 92.4968474,8.0538816 92.4968474,10.3452676 Z" id="Shape"></path>
        </g>
    </g>
</svg>