<?xml version="1.0" encoding="UTF-8"?>
<svg width="533px" height="597px" viewBox="0 0 533 597" version="1.1" xmlns="http://www.w3.org/2000/svg" xmlns:xlink="http://www.w3.org/1999/xlink">
    <!-- Generator: Sketch 48.2 (47327) - http://www.bohemiancoding.com/sketch -->
    <title>Group 6</title>
    <desc>Created with Sketch.</desc>
    <defs></defs>
    <g id="Artboard" stroke="none" stroke-width="1" fill="none" fill-rule="evenodd" transform="translate(-3021.000000, -238.000000)">
        <g id="Group-6" transform="translate(3036.000000, 238.000000)" fill-rule="nonzero">
            <g id="save" transform="translate(0.000000, 75.000000)">
                <g id="save-button">
                    <g id="Group-4" transform="translate(433.000000, 0.000000)" fill="#C92727">
                        <path d="M42.9998712,61 C39.6914275,61 37,63.6265005 37,66.8548235 L37,79.1451765 C37,82.3737509 39.6916851,85 42.9998712,85 C46.3085725,85 49,82.3734995 49,79.1451765 L49,66.8548235 C49,63.6267519 46.3083149,61 42.9998712,61 Z M45.13534,79.1454279 C45.13534,80.2942705 44.1774834,81.2294333 42.9998712,81.2294333 C41.8225166,81.2294333 40.8644024,80.2945218 40.8644024,79.1454279 L40.8644024,66.8550749 C40.8644024,65.7062323 41.822259,64.7713208 42.9998712,64.7713208 C44.1774834,64.7713208 45.13534,65.7062323 45.13534,66.8550749 L45.13534,79.1454279 Z" id="Shape"></path>
                        <path d="M30.2370414,21.7124902 L21.2883583,12.7663908 C18.9325697,10.4116775 15.119459,10.4106424 12.7626351,12.7666496 C10.4122824,15.116964 10.4125413,18.93988 12.7628939,21.2899356 L21.711577,30.2352588 C22.8499968,31.373284 24.3642658,32 25.9743092,32 C27.5843526,32 29.0986216,31.373284 30.2370414,30.2352588 C32.5876529,27.8854619 32.5876529,24.0622872 30.2370414,21.7124902 Z M28.1201708,25.9737451 C28.1201708,26.5466391 27.8970426,27.0851181 27.4916845,27.490077 C26.6537889,28.327941 25.2958649,28.328976 24.4571928,27.490077 L15.5085097,18.5447539 C14.1614573,17.1981684 15.1204944,14.8830452 17.0256261,14.8830452 C17.5987187,14.8830452 18.1376432,15.1060961 18.5430014,15.5110551 C28.2534783,25.2189431 28.1201708,24.7883669 28.1201708,25.9737451 Z" id="Shape"></path>
                        <path d="M73.2370468,64.7119938 L64.2886501,55.766464 C61.9328688,53.4114374 58.1192522,53.4109199 55.7629532,55.766464 C53.4123489,58.1163152 53.4123489,61.9395782 55.7629532,64.2896882 L64.711091,73.235218 C65.8495073,74.3732695 67.3637717,75 68.9740689,75 C70.5843662,75 72.0983717,74.3732695 73.2370468,73.235218 C75.5876511,70.8853668 75.5876511,67.061845 73.2370468,64.7119938 Z M68.9740689,71.1185147 C68.4009781,71.1185147 67.8620553,70.8957174 67.4569572,70.4904904 L58.5088193,61.5447018 C57.6724795,60.7083711 57.6724795,59.3477811 58.5088193,58.5114504 C59.3464535,57.6735671 60.7046322,57.6727908 61.5433017,58.5114504 L70.4916984,67.4569802 C71.8408173,68.8059257 70.8771239,71.1185147 68.9740689,71.1185147 Z" id="Shape"></path>
                        <path d="M18.1451765,37 L5.85457212,37 C2.62650047,37.0007729 0,39.6921426 0,43 C0,46.3086303 2.62650047,49 5.8548235,49 L18.1451765,49 C21.3737509,49 24,46.3081151 24,43 C24.0002514,39.6913697 21.3737509,37 18.1451765,37 Z M18.1451765,45.1354229 L5.8548235,45.1354229 C4.70572955,45.1354229 3.77106945,44.1773293 3.77106945,43 C3.77106945,41.8229283 4.70598094,40.8645771 5.8548235,40.8645771 L18.1451765,40.8645771 C19.2942705,40.8645771 20.2289306,41.8226707 20.2289306,43 C20.2289306,44.1773293 19.2945218,45.1354229 18.1451765,45.1354229 Z" id="Shape"></path>
                        <path d="M30.2372706,55.7655148 C29.0985937,54.6269738 27.5845858,54 25.9742861,54 C24.3639864,54 22.8499785,54.6269738 21.7115605,55.765256 L12.7626324,64.7103066 C10.4122833,67.0606174 10.4125422,70.8835275 12.7628912,73.2335796 C15.118935,75.588548 18.9322987,75.5890656 21.2886012,73.2335796 L30.2370117,64.2882702 C32.5876196,61.9384769 32.5876196,58.1150493 30.2372706,55.7655148 Z M27.4914002,61.5433514 C17.7866329,71.2447555 18.2137338,71.1169284 17.0258757,71.1169284 C15.1212646,71.1169284 14.1604171,68.8023264 15.5085027,67.4552254 L24.4574309,58.5101748 C24.8625296,58.1049577 25.4011944,57.8816484 25.9742861,57.8816484 C26.547119,57.8816484 27.0857838,58.1046989 27.4914002,58.5104335 C27.8964989,58.9153919 28.1198856,59.45387 28.1198856,60.0267631 C28.1201445,60.5996562 27.8964989,61.1381343 27.4914002,61.5433514 Z" id="Shape"></path>
                        <path d="M73.2370468,12.7666081 C70.880489,10.4110012 67.06739,10.41126 64.711091,12.7666081 L55.7629532,21.7108765 C53.4123489,24.0605323 53.4123489,27.8834773 55.7629532,30.2333919 C58.119511,32.5889988 61.9323511,32.58874 64.2886501,30.2333919 L73.2370468,21.2891235 C75.5876511,18.9394677 75.5876511,15.1162639 73.2370468,12.7666081 Z M70.4911807,18.5443654 C60.7804748,28.2506353 61.2117166,28.1168646 60.0256722,28.1168646 C58.1223584,28.1168646 57.1599592,25.8031742 58.5085605,24.4556346 C68.2133128,14.7550571 67.7862126,14.8828767 68.9740689,14.8828767 C70.8781593,14.8828767 71.8395231,17.1968258 70.4911807,18.5443654 Z" id="Shape"></path>
                        <path d="M79.1453052,37.0005152 L66.8546948,37 C63.6263041,37 61,39.6916273 61,43 C61,46.3083727 63.6265555,49 66.8546948,49 L68.5086102,49 C69.5498806,49 70.3940587,48.1351653 70.3940587,47.0678403 C70.3940587,46.0005152 69.5498806,45.1356805 68.5086102,45.1356805 L66.8546948,45.1356805 C65.7058281,45.1356805 64.7711484,44.1775869 64.7711484,43.0002576 C64.7711484,41.8229283 65.7058281,40.8648347 66.8546948,40.8648347 L79.1453052,40.8653499 C80.2941719,40.8653499 81.2291029,41.8231859 81.2291029,43.0002576 C81.2291029,44.1775869 80.2944233,45.1356805 79.1453052,45.1356805 L77.3083756,45.1356805 C76.2671052,45.1356805 75.4229271,46.0005152 75.4229271,47.0678403 C75.4229271,48.1351653 76.2671052,49 77.3083756,49 L79.1453052,49 C82.3736959,49 85,46.3083727 85,43 C85,39.6916273 82.3734445,37.0005152 79.1453052,37.0005152 Z" id="Shape"></path>
                        <path d="M47.0677988,9.23448204 C48.1348891,9.23448204 49,8.39057295 49,7.34907301 L49,5.8548235 C49,2.62624908 46.3080573,0 42.9998712,0 C39.6916851,0 37,2.62650047 37,5.8548235 L37,18.1451765 C37,21.3737509 39.6916851,24 42.9998712,24 C46.3085725,24 49,21.3734995 49,18.1451765 L49,16.1484026 C49,15.1069027 48.1348891,14.2629936 47.0677988,14.2629936 C46.0007085,14.2629936 45.1355976,15.1069027 45.1355976,16.1484026 L45.1355976,18.1451765 C45.1355976,19.2940191 44.177741,20.2289306 43.0001288,20.2289306 C41.8227742,20.2289306 40.86466,19.2940191 40.86466,18.1451765 L40.86466,5.8548235 C40.86466,4.70598094 41.8225166,3.77106945 43.0001288,3.77106945 C44.177741,3.77106945 45.1355976,4.70598094 45.1355976,5.8548235 L45.1355976,7.34882162 C45.13534,8.39032157 46.0007085,9.23448204 47.0677988,9.23448204 Z" id="Shape"></path>
                    </g>
                    <path d="M367,38 L61,38 C32.95,38 10,60.95 10,89 L10,446 C10,474.05 32.95,497 61,497 L418,497 C446.05,497 469,474.05 469,446 L469,140 L367,38 Z M239.5,446 C196.15,446 163,412.85 163,369.5 C163,326.15 196.15,293 239.5,293 C282.85,293 316,326.15 316,369.5 C316,412.85 282.85,446 239.5,446 Z M316,191 L61,191 L61,89 L316,89 L316,191 Z" id="Shape" stroke="#666666" stroke-width="30"></path>
                    <path d="M367,38 L61,38 C32.95,38 10,60.95 10,89 L10,446 C10,474.05 32.95,497 61,497 L418,497 C446.05,497 469,474.05 469,446 L469,140 L367,38 Z M239.5,446 C196.15,446 163,412.85 163,369.5 C163,326.15 196.15,293 239.5,293 C282.85,293 316,326.15 316,369.5 C316,412.85 282.85,446 239.5,446 Z M316,191 L61,191 L61,89 L316,89 L316,191 Z" id="Shape" fill-opacity="0.4" fill="#C92727"></path>
                    <path d="M357,48 L51,48 C22.95,48 0,70.95 0,99 L0,456 C0,484.05 22.95,507 51,507 L408,507 C436.05,507 459,484.05 459,456 L459,150 L357,48 Z M229.5,456 C186.15,456 153,422.85 153,379.5 C153,336.15 186.15,303 229.5,303 C272.85,303 306,336.15 306,379.5 C306,422.85 272.85,456 229.5,456 Z M306,201 L51,201 L51,99 L306,99 L306,201 Z" id="Shape" stroke="#666666" stroke-width="30" opacity="0.16"></path>
                </g>
            </g>
            <g id="party" transform="translate(324.000000, 0.000000)" fill="#C92727" fill-opacity="0.4">
                <g id="Group-5">
                    <path d="M43,59 C39.1402232,59 36,62.0640893 36,65.8302867 L36,78.1697133 C36,81.93629 39.1402232,85 43,85 C46.8597768,85 50,81.93629 50,78.1697133 L50,65.8302867 C50,62.06371 46.8597768,59 43,59 Z M44.1685456,78.1697133 C44.1685456,78.7982347 43.6441384,79.3099278 43,79.3099278 C42.3558616,79.3099278 41.8314544,78.7982347 41.8314544,78.1697133 L41.8314544,65.8302867 C41.8314544,64.3240353 44.1685456,64.3232767 44.1685456,65.8302867 L44.1685456,78.1697133 Z" id="Shape"></path>
                    <path d="M43,0 C39.1402232,0 36,3.06370997 36,6.83028667 L36,19.1697133 C36,22.93629 39.1402232,26 43,26 C46.8597768,26 50,22.9359107 50,19.1697133 L50,6.83028667 C50,3.06408928 46.8597768,0 43,0 Z M44.1685456,19.1697133 C44.1685456,20.6759647 41.8314544,20.6767233 41.8314544,19.1697133 L41.8314544,6.83028667 C41.8314544,5.32403531 44.1685456,5.32327668 44.1685456,6.83028667 L44.1685456,19.1697133 Z" id="Shape"></path>
                    <path d="M72.9438073,63.020062 L63.9831935,54.0557636 C62.6587538,52.7303319 60.8972489,52 59.0231667,52 C52.8208934,52 49.6340577,59.547283 54.06314,63.9803277 L63.0241433,72.9454056 C64.3489726,74.2700578 66.1100879,75 67.9841701,75 C69.8574732,75 71.618978,74.2704475 72.9438073,72.9450158 C75.6846184,70.2029585 75.6861766,65.7628988 72.9438073,63.020062 Z M69.1547411,67.9819544 C69.1547411,69.0205534 67.8926279,69.5482319 67.1556162,68.8104953 C57.4303332,59.0807903 57.8522062,59.6829049 57.8522062,59.0168765 C57.8522062,58.8356575 57.8966139,58.4876392 58.1953919,58.1887253 C58.6519341,57.7319755 59.3920621,57.7300269 59.8509416,58.189115 C69.5859631,67.9289527 69.1547411,67.3217717 69.1547411,67.9819544 Z" id="Shape"></path>
                    <path d="M30.9410816,21.0209851 L21.9785231,12.0580587 C17.5878397,7.66836408 10,10.7569322 10,17.019797 C10,18.8941362 10.7298323,20.6562488 12.0550643,21.9819249 L21.0184021,30.9456307 C22.3436341,32.2705274 24.1052847,33 25.979547,33 C32.2082543,33 35.34891,25.4297739 30.9410816,21.0209851 Z M25.1519102,26.8115632 C15.427957,17.0879902 15.845672,17.6869215 15.845672,17.0194073 C15.845672,15.9863775 17.1042723,15.450184 17.8454047,16.1917365 L26.8083528,25.1542733 C27.902127,26.2484821 26.2456845,27.9053824 25.1519102,26.8115632 Z" id="Shape"></path>
                    <path d="M78.1697133,36 L65.8302867,36 C62.0640893,36 59,39.1398345 59,43 C59,46.8601655 62.0640893,50 65.8302867,50 L78.1697133,50 C81.9359107,50 85,46.8597768 85,43 C85,39.1402232 81.9359107,36 78.1697133,36 Z M78.1697133,44.1685456 L65.8302867,44.1685456 C64.3240353,44.1685456 64.3232767,41.8314544 65.8302867,41.8314544 L78.1697133,41.8314544 C79.6759647,41.8314544 79.6767233,44.1685456 78.1697133,44.1685456 Z" id="Shape"></path>
                    <path d="M19.1697133,36 L6.83028667,36 C3.06408928,36 0,39.1402232 0,43 C0,46.8601655 3.06408928,50 6.83028667,50 L19.1697133,50 C22.9359107,50 26,46.8601655 26,43 C26,39.1398345 22.9359107,36 19.1697133,36 Z M19.1697133,44.1685456 L6.83028667,44.1685456 C5.32365599,44.1685456 5.32327668,41.8314544 6.83028667,41.8314544 L19.1697133,41.8314544 C20.6767233,41.8314544 20.6771026,44.1685456 19.1697133,44.1685456 Z" id="Shape"></path>
                    <path d="M67.9810446,10 C66.106858,10 64.3444992,10.7302824 63.0193208,12.0552346 L54.0567347,21.0193152 C51.3148114,23.7611867 51.3140321,28.1993867 54.0567347,30.9435963 C56.7978786,33.6850782 61.2363109,33.6858576 63.9786237,30.9435963 L72.9415995,21.9795158 C77.346912,17.5740499 74.2114485,10 67.9810446,10 Z M68.8090376,17.8456651 L59.8464515,26.8097457 C59.1104144,27.5454838 57.8471893,27.0232968 57.8471893,25.9812609 C57.8467997,25.3129395 57.4322187,25.9107267 67.1526619,16.1890852 C68.2495091,15.0924925 69.9012091,16.7537487 68.8090376,17.8456651 Z" id="Shape"></path>
                    <path d="M30.9474752,54.0564478 C28.2034347,51.3144525 23.7650271,51.3144525 21.0217662,54.0568375 L12.0556917,63.0200491 C10.7300551,64.3448727 10,66.1068882 10,67.9811241 C10,74.2452022 17.5917155,77.3300932 21.9821803,72.9425888 L30.947865,63.9793773 C33.68411,61.2436163 33.68411,56.7925984 30.9474752,54.0564478 Z M26.8134846,59.8467067 C17.0873422,69.5701332 17.6868215,69.1528138 17.0191309,69.1528138 C15.9678984,69.1528138 15.4615761,67.8829313 16.1904619,67.1538886 L25.1569261,58.1902874 C26.2401205,57.1074389 27.9243533,58.735803 26.8134846,59.8467067 Z" id="Shape"></path>
                </g>
            </g>
            <g id="party" opacity="0.4" transform="translate(427.000000, 17.000000)" fill="#C92727" fill-opacity="0.4">
                <g id="Group-5">
                    <path d="M23.7764706,32.6235294 C21.6422411,32.6235294 19.9058824,34.3177905 19.9058824,36.4002762 L19.9058824,43.2232533 C19.9058824,45.3059486 21.6422411,47 23.7764706,47 C25.9107001,47 27.6470588,45.3059486 27.6470588,43.2232533 L27.6470588,36.4002762 C27.6470588,34.3175808 25.9107001,32.6235294 23.7764706,32.6235294 Z M24.4226075,43.2232533 C24.4226075,43.5707886 24.1326412,43.8537248 23.7764706,43.8537248 C23.4202999,43.8537248 23.1303336,43.5707886 23.1303336,43.2232533 L23.1303336,36.4002762 C23.1303336,35.5674078 24.4226075,35.5669883 24.4226075,36.4002762 L24.4226075,43.2232533 Z" id="Shape"></path>
                    <path d="M23.7764706,0 C21.6422411,0 19.9058824,1.6940514 19.9058824,3.77674675 L19.9058824,10.5997238 C19.9058824,12.6824192 21.6422411,14.3764706 23.7764706,14.3764706 C25.9107001,14.3764706 27.6470588,12.6822095 27.6470588,10.5997238 L27.6470588,3.77674675 C27.6470588,1.69426113 25.9107001,0 23.7764706,0 Z M24.4226075,10.5997238 C24.4226075,11.4325922 23.1303336,11.4330117 23.1303336,10.5997238 L23.1303336,3.77674675 C23.1303336,2.94387835 24.4226075,2.94345887 24.4226075,3.77674675 L24.4226075,10.5997238 Z" id="Shape"></path>
                    <path d="M40.3336346,34.8463872 L35.3789423,29.8896575 C34.646605,29.1567718 33.6725965,28.7529412 32.6363392,28.7529412 C29.2068469,28.7529412 27.4447143,32.9261447 29.8937362,35.3773577 L34.8486439,40.3345184 C35.5811966,41.0669731 36.5549898,41.4705882 37.591247,41.4705882 C38.6270734,41.4705882 39.601082,41.0671886 40.3336346,40.3343029 C41.849142,38.8181064 41.8500035,36.3630146 40.3336346,34.8463872 Z M38.2385039,37.5900218 C38.2385039,38.164306 37.5406296,38.4560811 37.1331054,38.0481562 C31.755596,32.6682017 31.988867,33.0011357 31.988867,32.6328611 C31.988867,32.5326577 32.0134218,32.340224 32.1786285,32.1749422 C32.4310694,31.9223865 32.8403167,31.921309 33.09405,32.1751577 C38.4769443,37.560715 38.2385039,37.2249796 38.2385039,37.5900218 Z" id="Shape"></path>
                    <path d="M17.1085981,11.6233682 L12.1528304,6.66739717 C9.72504078,4.24015425 5.52941176,5.94795073 5.52941176,9.41094657 C5.52941176,10.4473459 5.93296608,11.4216905 6.66574142,12.1547114 L11.62194,17.1111135 C12.3547153,17.8437034 13.3288045,18.2470588 14.3651613,18.2470588 C17.80927,18.2470588 19.5458679,14.0611691 17.1085981,11.6233682 Z M13.9075268,14.8252173 C8.53075271,9.4486534 8.76172453,9.77982716 8.76172453,9.4107311 C8.76172453,8.8395264 9.45765643,8.54304293 9.86745904,8.95307784 L14.8234421,13.9088335 C15.428235,14.5138666 14.5123196,15.430035 13.9075268,14.8252173 Z" id="Shape"></path>
                    <path d="M43.2232533,19.9058824 L36.4002762,19.9058824 C34.3177905,19.9058824 32.6235294,21.6420261 32.6235294,23.7764706 C32.6235294,25.910915 34.3177905,27.6470588 36.4002762,27.6470588 L43.2232533,27.6470588 C45.3057389,27.6470588 47,25.9107001 47,23.7764706 C47,21.6422411 45.3057389,19.9058824 43.2232533,19.9058824 Z M43.2232533,24.4226075 L36.4002762,24.4226075 C35.5674078,24.4226075 35.5669883,23.1303336 36.4002762,23.1303336 L43.2232533,23.1303336 C44.0561217,23.1303336 44.0565411,24.4226075 43.2232533,24.4226075 Z" id="Shape"></path>
                    <path d="M10.5997238,19.9058824 L3.77674675,19.9058824 C1.69426113,19.9058824 0,21.6422411 0,23.7764706 C0,25.910915 1.69426113,27.6470588 3.77674675,27.6470588 L10.5997238,27.6470588 C12.6822095,27.6470588 14.3764706,25.910915 14.3764706,23.7764706 C14.3764706,21.6420261 12.6822095,19.9058824 10.5997238,19.9058824 Z M10.5997238,24.4226075 L3.77674675,24.4226075 C2.94366861,24.4226075 2.94345887,23.1303336 3.77674675,23.1303336 L10.5997238,23.1303336 C11.4330117,23.1303336 11.4332215,24.4226075 10.5997238,24.4226075 Z" id="Shape"></path>
                    <path d="M37.5895188,5.52941176 C36.5532039,5.52941176 35.5787231,5.933215 34.8459774,6.66583559 L29.8901945,11.6224448 C28.3740722,13.1385385 28.3736413,15.592602 29.8901945,17.1099886 C31.4058858,18.6258668 33.8600778,18.6262977 35.3764155,17.1099886 L40.3324138,12.1533793 C42.7682925,9.71741583 41.0345657,5.52941176 37.5895188,5.52941176 Z M38.0473502,9.86760305 L33.0915673,14.8242123 C32.6845821,15.2310322 31.9860929,14.9422935 31.9860929,14.366109 C31.9858775,13.9965665 31.7566386,14.3271077 37.1314719,8.95161184 C37.7379639,8.34526056 38.6512568,9.2638375 38.0473502,9.86760305 Z" id="Shape"></path>
                    <path d="M17.1121334,29.8900359 C15.5948404,28.3738737 13.1406621,28.3738737 11.6238001,29.8902513 L6.66608836,34.8463801 C5.93308929,35.5789296 5.52941176,36.5532206 5.52941176,37.5895627 C5.52941176,41.0532295 9.72718387,42.7589927 12.1548527,40.3329609 L17.1123489,35.3768321 C18.6253314,33.8641173 18.6253314,31.4029662 17.1121334,29.8900359 Z M14.8262797,33.0917084 C9.44829507,38.4681913 9.77977187,38.2374382 9.41057827,38.2374382 C8.8293085,38.2374382 8.54934208,37.5352679 8.95237303,37.1321502 L13.9103003,32.175806 C14.5092431,31.5770544 15.4405248,32.477444 14.8262797,33.0917084 Z" id="Shape"></path>
                </g>
            </g>
        </g>
    </g>
</svg>