<?xml version="1.0" encoding="UTF-8"?>
<svg width="119px" height="141px" viewBox="0 0 119 141" version="1.1" xmlns="http://www.w3.org/2000/svg" xmlns:xlink="http://www.w3.org/1999/xlink">
    <!-- Generator: Sketch 48.2 (47327) - http://www.bohemiancoding.com/sketch -->
    <title>bag</title>
    <desc>Created with Sketch.</desc>
    <defs>
        <linearGradient x1="98.7185108%" y1="88.7201306%" x2="0%" y2="0%" id="linearGradient-1">
            <stop stop-color="#FFFFFF" offset="0%"></stop>
            <stop stop-color="#FBD9E0" offset="100%"></stop>
        </linearGradient>
        <path d="M11.7069282,19.0000027 L107.293073,19.0000027 C111.595222,19.0000027 115.127014,22.4024108 115.287504,26.7015656 L118.804598,120.91632 C118.927081,124.197349 117.032384,127.2201 114.026025,128.539935 C99.6604082,134.846645 81.4850666,138 59.5000005,138 C37.514933,138 19.3395905,134.846644 4.97397305,128.539933 L4.97397375,128.539932 C1.96761469,127.220097 0.0729187232,124.197347 0.195401596,120.916317 L3.71249666,26.7015656 C3.87298678,22.4024108 7.40477882,19.0000027 11.7069282,19.0000027 Z" id="path-2"></path>
        <linearGradient x1="98.7185108%" y1="88.7201306%" x2="0%" y2="0%" id="linearGradient-4">
            <stop stop-color="#666666" offset="0%"></stop>
            <stop stop-color="#E70033" offset="100%"></stop>
        </linearGradient>
    </defs>
    <g id="Marca" stroke="none" stroke-width="1" fill="none" fill-rule="evenodd" transform="translate(-363.000000, -127.000000)">
        <g id="marca" transform="translate(363.000000, 130.000000)">
            <g id="bag">
                <path d="M100,53.1335137 C100,29.3115319 82.09139,0 60,0 C37.90861,0 20,29.3115319 20,53.1335137 C20,76.9554954 100,76.9554954 100,53.1335137 Z" id="Combined-Shape" stroke="#FFFFFF" stroke-width="6"></path>
                <mask id="mask-3" fill="white">
                    <use xlink:href="#path-2"></use>
                </mask>
                <use id="base" fill="url(#linearGradient-1)" xlink:href="#path-2"></use>
                <path d="M-2,59 L101,59 C105.418278,59 109,62.581722 109,67 L108.999999,161.131106 C108.999999,164.297813 107.132077,167.166472 104.236003,168.447407 C89.8376561,174.815802 71.5923218,178 49.5000005,178 C27.4076773,178 9.16234184,174.815802 -5.23600593,168.447405 L-5.23600492,168.447403 C-8.13207812,167.166468 -9.99999923,164.29781 -9.99999926,161.131103 L-10,67 C-10,62.581722 -6.41827806,59 -2.00000006,58.9999999 Z" id="Rectangle" fill-opacity="0.04" fill="url(#linearGradient-4)" mask="url(#mask-3)"></path>
                <path d="M28,-11 L131,-11 C135.418278,-11 139,-7.41827799 139,-3 L138.999999,91.1311058 C138.999999,94.2978134 137.132077,97.1664719 134.236003,98.4474067 C119.837656,104.815802 101.592322,108 79.5000005,108 C57.4076773,108 39.1623418,104.815802 24.7639941,98.4474051 L24.7639951,98.4474028 C21.8679219,97.1664682 20.0000008,94.2978101 20.0000007,91.131103 L20,-3 C20,-7.418278 23.5817219,-11 27.9999999,-11.0000001 Z" id="Rectangle" fill-opacity="0.02" fill="url(#linearGradient-4)" mask="url(#mask-3)"></path>
                <path d="M18,29 L121,29 C125.418278,29 129,32.581722 129,37 L128.999999,131.131106 C128.999999,134.297813 127.132077,137.166472 124.236003,138.447407 C109.837656,144.815802 91.5923218,148 69.5000005,148 C47.4076773,148 29.1623418,144.815802 14.7639941,138.447405 L14.7639951,138.447403 C11.8679219,137.166468 10.0000008,134.29781 10.0000007,131.131103 L10,37 C9.99999997,32.581722 13.5817219,29 17.9999999,28.9999999 Z" id="Rectangle" fill-opacity="0.04" fill="url(#linearGradient-4)" mask="url(#mask-3)"></path>
                <path d="M59.5075552,43.000096 C78.9233648,42.9699602 95.0301767,58.7761759 94.9999575,78.5151106 C94.9697381,98.1184343 79.1046798,114.015057 59.4471169,113.999989 C39.7291156,113.984922 23.9698242,97.8924161 24.0000434,78.4096354 C24.0302625,58.8816511 39.9859785,42.9548923 59.5075552,43.000096 Z M58.9636217,59.5478108 C57.2973766,59.5776652 54.7071228,59.5328836 52.1168689,59.5925924 C49.6932396,59.6523013 47.2696103,59.7269374 44.8459809,59.8165007 C43.9977107,59.8463551 43.1494404,59.8911368 42.3011701,59.9508456 C40.7106634,60.0702634 39.1201566,60.1896811 37.5296499,60.3240261 C36.469312,60.4135894 35.4089742,60.4882255 34.3637841,60.7121337 C33.1065264,60.9808237 32.3188468,61.7271845 32.0916316,62.9810708 C31.7886779,64.7424824 31.7583826,66.5486757 31.6523488,68.3250145 C31.5766104,69.8177363 31.5311673,71.2955308 31.5311673,72.7882525 C31.5311673,75.8184776 31.4857242,78.8337754 31.5614627,81.8640007 C31.6069057,83.9239565 31.6523488,85.9839124 31.7886779,88.0289412 C31.8492687,88.9842832 31.8947117,89.9545522 32.0461885,90.9098942 C32.2734038,92.3429069 33.0156403,93.1191224 34.4546702,93.4325941 C34.606147,93.4624483 34.7576239,93.4923028 34.9091007,93.5072299 C36.8177088,93.7460655 38.7414645,93.8953378 40.6500726,94.0446098 C42.8464867,94.2088092 45.0580485,94.2983725 47.2544626,94.4028632 C48.8146739,94.4774993 50.390033,94.5073535 51.9502444,94.537208 C53.6619326,94.5670626 55.3584732,94.5521351 57.0701613,94.5969168 C60.1602888,94.6715529 63.2504163,94.5670626 66.3405436,94.5521351 C67.0524848,94.5521351 67.749278,94.5222809 68.4612192,94.5073535 C70.7939623,94.4774993 73.1115579,94.3730086 75.4443013,94.2834454 C76.6106729,94.2386637 77.7921923,94.1640276 78.9585638,94.0744643 C80.4127414,93.9699736 81.8669189,93.8356287 83.3059487,93.7012839 C84.1542192,93.6266477 85.0024895,93.566939 85.8204644,93.3131763 C86.7596205,93.0295591 87.3655279,92.4324705 87.6381864,91.4920557 C87.789663,90.9845303 87.8351061,90.4620775 87.8956967,89.9396251 C88.1077643,87.7602515 88.1835028,85.5808778 88.2592412,83.4015041 C88.3198319,81.9535639 88.2743891,80.5056237 88.3046844,79.0576839 C88.3349797,77.5201804 88.3046844,75.9976042 88.2895365,74.4601008 C88.2440938,71.8179834 88.2289459,69.1609387 88.0623215,66.5188212 C87.986583,65.4291344 87.9411399,64.3394475 87.789663,63.2497607 C87.5775954,61.7868934 86.8808021,61.0405325 85.4266246,60.6972065 C84.9570463,60.5777888 84.4571727,60.5330071 83.972447,60.4882255 C81.7760326,60.2344628 79.5796186,60.0851906 77.3832046,59.9359184 C75.6260732,59.8165007 73.8689422,59.7418646 72.1118107,59.6821557 C70.2183506,59.6224469 68.3248901,59.562738 66.4314296,59.5478108 C64.2350156,59.5328836 62.0688969,59.5478108 58.9636217,59.5478108 Z M59.4923379,91.2823529 C51.4606707,91.2823529 44.8823529,85.0275024 44.8823529,77.0897992 C44.8823529,69.122311 51.5371628,62.8972455 59.4923379,62.8823529 C67.3863193,62.8823529 74.1329197,69.0478485 74.1176211,77.1046917 C74.1176211,84.9977173 67.5851985,91.2823529 59.4923379,91.2823529 Z" id="iconeGlobo" fill="#E70033" fill-rule="nonzero" mask="url(#mask-3)"></path>
            </g>
        </g>
    </g>
</svg>