<?xml version="1.0" encoding="UTF-8"?>
<svg width="522px" height="422px" viewBox="0 0 522 422" version="1.1" xmlns="http://www.w3.org/2000/svg" xmlns:xlink="http://www.w3.org/1999/xlink">
    <!-- Generator: Sketch 48.2 (47327) - http://www.bohemiancoding.com/sketch -->
    <title>tutorial</title>
    <desc>Created with Sketch.</desc>
    <defs></defs>
    <g id="Artboard" stroke="none" stroke-width="1" fill="none" fill-rule="evenodd" transform="translate(-1712.000000, -377.000000)">
        <g id="tutorial" transform="translate(1712.000000, 377.000000)">
            <g id="icone" opacity="0.16" transform="translate(0.000000, 10.000000)" fill="#333333" fill-rule="nonzero">
                <path d="M394.667,106.667 L365.291,106.667 C364.704,105.184 364.096,103.712 363.435,102.23 L384.224,81.451 C388.388,77.286 388.388,70.534 384.224,66.368 L338.965,21.109 C334.8,16.945 328.048,16.945 323.882,21.109 L303.103,41.898 C301.62,41.237 300.148,40.629 298.666,40.042 L298.666,10.667 C298.667,4.776 293.891,0 288,0 L224,0 C218.109,0 213.333,4.776 213.333,10.667 L213.333,40.043 C211.85,40.63 210.378,41.238 208.896,41.899 L188.117,21.11 C183.952,16.946 177.2,16.946 173.034,21.11 L127.775,66.369 C123.611,70.534 123.611,77.286 127.775,81.452 L148.564,102.231 C147.903,103.714 147.295,105.186 146.708,106.668 L117.332,106.668 C111.441,106.668 106.665,111.444 106.665,117.335 L106.665,181.335 C106.665,187.226 111.441,192.002 117.332,192.002 L146.708,192.002 C147.295,193.485 147.903,194.957 148.564,196.439 L127.775,217.218 C123.611,221.383 123.611,228.135 127.775,232.301 L173.034,277.56 C177.199,281.724 183.951,281.724 188.117,277.56 L208.896,256.771 C210.379,257.432 211.851,258.04 213.333,258.627 L213.333,288 C213.333,293.891 218.109,298.667 224,298.667 L288,298.667 C293.891,298.667 298.667,293.891 298.667,288 L298.667,258.624 C300.15,258.037 301.622,257.429 303.104,256.768 L323.883,277.557 C328.048,281.721 334.8,281.721 338.966,277.557 L384.225,232.298 C388.389,228.133 388.389,221.381 384.225,217.215 L363.436,196.436 C364.097,194.953 364.705,193.481 365.292,191.999 L394.668,191.999 C400.559,191.999 405.335,187.223 405.335,181.332 L405.335,117.332 C405.333,111.442 400.558,106.667 394.667,106.667 Z M384,170.656 L357.781,170.656 C353.122,170.656 349.003,173.679 347.605,178.123 C345.894,183.49 343.717,188.698 341.098,193.686 C338.94,197.816 339.713,202.87 343.007,206.166 L361.599,224.758 L331.423,254.934 L312.842,236.331 C309.546,233.037 304.492,232.263 300.362,234.422 C295.374,237.041 290.167,239.218 284.799,240.929 C280.355,242.327 277.332,246.446 277.332,251.105 L277.332,277.334 L234.665,277.334 L234.676,251.115 C234.676,246.456 231.653,242.337 227.209,240.939 C221.842,239.228 216.634,237.051 211.646,234.432 C207.516,232.274 202.462,233.047 199.166,236.341 L180.574,254.933 L150.4,224.757 L169.003,206.186 C172.297,202.89 173.07,197.836 170.912,193.706 C168.293,188.718 166.116,183.511 164.405,178.143 C163.007,173.699 158.888,170.676 154.229,170.676 L128,170.676 L128,128.009 L154.219,128.009 C158.878,128.009 162.997,124.986 164.395,120.542 C166.106,115.175 168.283,109.967 170.902,104.979 C173.06,100.849 172.287,95.795 168.993,92.499 L150.4,73.909 L180.576,43.733 L199.157,62.336 C202.453,65.63 207.507,66.404 211.637,64.245 C216.625,61.626 221.832,59.449 227.2,57.738 C231.644,56.34 234.667,52.221 234.667,47.562 L234.667,21.333 L277.323,21.333 L277.323,47.562 C277.323,52.221 280.346,56.34 284.79,57.738 C290.157,59.449 295.365,61.626 300.353,64.245 C304.483,66.403 309.537,65.63 312.833,62.336 L331.425,43.733 L361.6,73.909 L342.997,92.49 C339.703,95.786 338.929,100.84 341.088,104.97 C343.707,109.958 345.884,115.165 347.595,120.533 C348.993,124.977 353.112,128 357.771,128 L384,128 L384,170.656 Z" id="Shape"></path>
                <path d="M256,96 C226.545,96 202.667,119.878 202.667,149.333 C202.667,178.788 226.545,202.666 256,202.666 C285.441,202.631 309.298,178.773 309.333,149.333 C309.333,119.878 285.455,96 256,96 Z M256,181.333 C238.327,181.333 224,167.006 224,149.333 C224,131.66 238.327,117.333 256,117.333 C273.673,117.333 288,131.66 288,149.333 C288,167.006 273.673,181.333 256,181.333 Z" id="Shape"></path>
                <path d="M501.333,348 L10.667,348 C4.776,348 0,352.776 0,358.667 C0.035,388.107 23.893,411.965 53.333,412 L458.666,412 C488.107,411.965 511.964,388.107 511.999,358.667 C512,352.776 507.224,348 501.333,348 Z M458.667,390.667 L53.333,390.667 C39.776,390.65 27.694,382.109 23.157,369.334 L488.842,369.334 C484.306,382.109 472.224,390.65 458.667,390.667 Z" id="Shape"></path>
                <path d="M64,28 C46.327,28 32,42.327 32,60 L32,358.667 L53.333,358.667 L53.333,60 C53.333,54.109 58.109,49.333 64,49.333 L85.333,49.333 L85.333,28 L64,28 Z" id="Shape"></path>
                <path d="M448,28 L426.667,28 L426.667,49.333 L448,49.333 C453.891,49.333 458.667,54.109 458.667,60 L458.667,358.667 L480,358.667 L480,60 C480,42.327 465.673,28 448,28 Z" id="Shape"></path>
                <rect id="Rectangle-path" x="213.333" y="358.667" width="85.333" height="21.333"></rect>
            </g>
            <g id="icone" transform="translate(10.000000, 0.000000)">
                <path d="M394.667,106.667 L365.291,106.667 C364.704,105.184 364.096,103.712 363.435,102.23 L384.224,81.451 C388.388,77.286 388.388,70.534 384.224,66.368 L338.965,21.109 C334.8,16.945 328.048,16.945 323.882,21.109 L303.103,41.898 C301.62,41.237 300.148,40.629 298.666,40.042 L298.666,10.667 C298.667,4.776 293.891,0 288,0 L224,0 C218.109,0 213.333,4.776 213.333,10.667 L213.333,40.043 C211.85,40.63 210.378,41.238 208.896,41.899 L188.117,21.11 C183.952,16.946 177.2,16.946 173.034,21.11 L127.775,66.369 C123.611,70.534 123.611,77.286 127.775,81.452 L148.564,102.231 C147.903,103.714 147.295,105.186 146.708,106.668 L117.332,106.668 C111.441,106.668 106.665,111.444 106.665,117.335 L106.665,181.335 C106.665,187.226 111.441,192.002 117.332,192.002 L146.708,192.002 C147.295,193.485 147.903,194.957 148.564,196.439 L127.775,217.218 C123.611,221.383 123.611,228.135 127.775,232.301 L173.034,277.56 C177.199,281.724 183.951,281.724 188.117,277.56 L208.896,256.771 C210.379,257.432 211.851,258.04 213.333,258.627 L213.333,288 C213.333,293.891 218.109,298.667 224,298.667 L288,298.667 C293.891,298.667 298.667,293.891 298.667,288 L298.667,258.624 C300.15,258.037 301.622,257.429 303.104,256.768 L323.883,277.557 C328.048,281.721 334.8,281.721 338.966,277.557 L384.225,232.298 C388.389,228.133 388.389,221.381 384.225,217.215 L363.436,196.436 C364.097,194.953 364.705,193.481 365.292,191.999 L394.668,191.999 C400.559,191.999 405.335,187.223 405.335,181.332 L405.335,117.332 C405.333,111.442 400.558,106.667 394.667,106.667 Z M384,170.656 L357.781,170.656 C353.122,170.656 349.003,173.679 347.605,178.123 C345.894,183.49 343.717,188.698 341.098,193.686 C338.94,197.816 339.713,202.87 343.007,206.166 L361.599,224.758 L331.423,254.934 L312.842,236.331 C309.546,233.037 304.492,232.263 300.362,234.422 C295.374,237.041 290.167,239.218 284.799,240.929 C280.355,242.327 277.332,246.446 277.332,251.105 L277.332,277.334 L234.665,277.334 L234.676,251.115 C234.676,246.456 231.653,242.337 227.209,240.939 C221.842,239.228 216.634,237.051 211.646,234.432 C207.516,232.274 202.462,233.047 199.166,236.341 L180.574,254.933 L150.4,224.757 L169.003,206.186 C172.297,202.89 173.07,197.836 170.912,193.706 C168.293,188.718 166.116,183.511 164.405,178.143 C163.007,173.699 158.888,170.676 154.229,170.676 L128,170.676 L128,128.009 L154.219,128.009 C158.878,128.009 162.997,124.986 164.395,120.542 C166.106,115.175 168.283,109.967 170.902,104.979 C173.06,100.849 172.287,95.795 168.993,92.499 L150.4,73.909 L180.576,43.733 L199.157,62.336 C202.453,65.63 207.507,66.404 211.637,64.245 C216.625,61.626 221.832,59.449 227.2,57.738 C231.644,56.34 234.667,52.221 234.667,47.562 L234.667,21.333 L277.323,21.333 L277.323,47.562 C277.323,52.221 280.346,56.34 284.79,57.738 C290.157,59.449 295.365,61.626 300.353,64.245 C304.483,66.403 309.537,65.63 312.833,62.336 L331.425,43.733 L361.6,73.909 L342.997,92.49 C339.703,95.786 338.929,100.84 341.088,104.97 C343.707,109.958 345.884,115.165 347.595,120.533 C348.993,124.977 353.112,128 357.771,128 L384,128 L384,170.656 Z" id="Shape" fill="#666666" fill-rule="nonzero"></path>
                <path d="M384,170.656 L357.781,170.656 C353.122,170.656 349.003,173.679 347.605,178.123 C345.894,183.49 343.717,188.698 341.098,193.686 C338.94,197.816 339.713,202.87 343.007,206.166 L361.599,224.758 L331.423,254.934 L312.842,236.331 C309.546,233.037 304.492,232.263 300.362,234.422 C295.374,237.041 290.167,239.218 284.799,240.929 C280.355,242.327 277.332,246.446 277.332,251.105 L277.332,277.334 L234.665,277.334 L234.676,251.115 C234.676,246.456 231.653,242.337 227.209,240.939 C221.842,239.228 216.634,237.051 211.646,234.432 C207.516,232.274 202.462,233.047 199.166,236.341 L180.574,254.933 L150.4,224.757 L169.003,206.186 C172.297,202.89 173.07,197.836 170.912,193.706 C168.293,188.718 166.116,183.511 164.405,178.143 C163.007,173.699 158.888,170.676 154.229,170.676 L128,170.676 L128,128.009 L154.219,128.009 C158.878,128.009 162.997,124.986 164.395,120.542 C166.106,115.175 168.283,109.967 170.902,104.979 C173.06,100.849 172.287,95.795 168.993,92.499 L150.4,73.909 L180.576,43.733 L199.157,62.336 C202.453,65.63 207.507,66.404 211.637,64.245 C216.625,61.626 221.832,59.449 227.2,57.738 C231.644,56.34 234.667,52.221 234.667,47.562 L234.667,21.333 L277.323,21.333 L277.323,47.562 C277.323,52.221 280.346,56.34 284.79,57.738 C290.157,59.449 295.365,61.626 300.353,64.245 C304.483,66.403 309.537,65.63 312.833,62.336 L331.425,43.733 L361.6,73.909 L342.997,92.49 C339.703,95.786 338.929,100.84 341.088,104.97 C343.707,109.958 345.884,115.165 347.595,120.533 C348.993,124.977 353.112,128 357.771,128 L384,128 L384,170.656 Z M257,190 C280.195959,190 299,171.195959 299,148 C299,124.804041 280.195959,106 257,106 C233.804041,106 215,124.804041 215,148 C215,171.195959 233.804041,190 257,190 Z" id="Combined-Shape" fill-opacity="0.4" fill="#C92727"></path>
                <path d="M256,96 C226.545,96 202.667,119.878 202.667,149.333 C202.667,178.788 226.545,202.666 256,202.666 C285.441,202.631 309.298,178.773 309.333,149.333 C309.333,119.878 285.455,96 256,96 Z M256,181.333 C238.327,181.333 224,167.006 224,149.333 C224,131.66 238.327,117.333 256,117.333 C273.673,117.333 288,131.66 288,149.333 C288,167.006 273.673,181.333 256,181.333 Z" id="Shape" fill="#666666" fill-rule="nonzero"></path>
                <path d="M501.333,348 L10.667,348 C4.776,348 0,352.776 0,358.667 C0.035,388.107 23.893,411.965 53.333,412 L458.666,412 C488.107,411.965 511.964,388.107 511.999,358.667 C512,352.776 507.224,348 501.333,348 Z M458.667,390.667 L53.333,390.667 C39.776,390.65 27.694,382.109 23.157,369.334 L488.842,369.334 C484.306,382.109 472.224,390.65 458.667,390.667 Z" id="Shape" fill="#666666" fill-rule="nonzero"></path>
                <path d="M64,28 C46.327,28 32,42.327 32,60 L32,358.667 L53.333,358.667 L53.333,60 C53.333,54.109 58.109,49.333 64,49.333 L85.333,49.333 L85.333,28 L64,28 Z" id="Shape" fill="#666666" fill-rule="nonzero"></path>
                <path d="M448,28 L426.667,28 L426.667,49.333 L448,49.333 C453.891,49.333 458.667,54.109 458.667,60 L458.667,358.667 L480,358.667 L480,60 C480,42.327 465.673,28 448,28 Z" id="Shape" fill="#666666" fill-rule="nonzero"></path>
                <rect id="Rectangle-path" fill="#666666" fill-rule="nonzero" x="213.333" y="358.667" width="85.333" height="21.333"></rect>
            </g>
        </g>
    </g>
</svg>