<?xml version="1.0" encoding="UTF-8"?>
<svg width="524px" height="524px" viewBox="0 0 524 524" version="1.1" xmlns="http://www.w3.org/2000/svg" xmlns:xlink="http://www.w3.org/1999/xlink">
    <!-- Generator: Sketch 48.2 (47327) - http://www.bohemiancoding.com/sketch -->
    <title>002-televisions</title>
    <desc>Created with Sketch.</desc>
    <defs>
        <path d="M274.213,28.234 C316.176,59.718 312.362,203.575 274.213,238.997 C229.128,280.859 75.594,280.859 30.51,238.997 C-7.639,203.576 -11.453,59.719 30.51,28.234 C80.102,-8.975 224.62,-8.975 274.213,28.234 Z" id="path-1"></path>
    </defs>
    <g id="Artboard" stroke="none" stroke-width="1" fill="none" fill-rule="evenodd" transform="translate(-168.000000, -277.000000)">
        <g id="002-televisions" transform="translate(168.000000, 277.000000)">
            <g id="colorbar" transform="translate(65.000000, 189.000000)">
                <mask id="mask-2" fill="white">
                    <use xlink:href="#path-1"></use>
                </mask>
                <use id="Shape" fill="#91302A" fill-rule="nonzero" xlink:href="#path-1"></use>
                <rect id="Rectangle" fill="#BBBBBB" mask="url(#mask-2)" x="3" y="1" width="44" height="260"></rect>
                <rect id="Rectangle" fill="#FFEAC7" mask="url(#mask-2)" x="46" y="1" width="44" height="260"></rect>
                <rect id="Rectangle" fill="#63C5B0" mask="url(#mask-2)" x="89" y="1" width="44" height="260"></rect>
                <rect id="Rectangle" fill="#BEDD3A" mask="url(#mask-2)" x="133" y="1" width="44" height="260"></rect>
                <rect id="Rectangle" fill="#FF944A" mask="url(#mask-2)" x="176" y="1" width="44" height="260"></rect>
                <rect id="Rectangle" fill="#FF006A" mask="url(#mask-2)" x="219" y="1" width="44" height="260"></rect>
                <rect id="Rectangle" fill="#2A4E6F" mask="url(#mask-2)" x="263" y="1" width="44" height="260"></rect>
            </g>
            <path d="M442.5,180 C422.373151,180 406,196.375147 406,216.5 C406,236.624853 422.373151,253 442.5,253 C462.626849,253 479,236.624853 479,216.5 C479,196.375147 462.626849,180 442.5,180 Z M442.5,236.154767 C431.66308,236.154767 422.846231,227.33692 422.846231,216.500998 C422.846231,205.664078 431.664078,196.847229 442.5,196.847229 C453.335922,196.847229 462.153769,205.665076 462.153769,216.500998 C462.153769,227.33692 453.335922,236.154767 442.5,236.154767 Z" id="Shape" fill="#FFFFFF" fill-rule="nonzero"></path>
            <path d="M442.5,270 C422.373151,270 406,286.375147 406,306.5 C406,326.625851 422.373151,343 442.5,343 C462.626849,343 479,326.625851 479,306.5 C479,286.374149 462.626849,270 442.5,270 Z M442.5,326.154767 C431.66308,326.154767 422.846231,317.33692 422.846231,306.500998 C422.846231,295.665076 431.664078,286.847229 442.5,286.847229 C453.335922,286.847229 462.153769,295.665076 462.153769,306.500998 C462.153769,317.33692 453.335922,326.154767 442.5,326.154767 Z" id="Shape" fill="#FFFFFF" fill-rule="nonzero"></path>
            <path d="M470.576616,450 L414.423384,450 C409.770562,450 406,453.805865 406,458.5 C406,463.194135 409.770562,467 414.423384,467 L470.576616,467 C475.229438,467 479,463.194135 479,458.5 C479,453.805865 475.229438,450 470.576616,450 Z" id="Shape" fill="#FFFFFF" fill-rule="nonzero"></path>
            <path d="M470.576616,416 L414.423384,416 C409.770562,416 406,419.805865 406,424.5 C406,429.194135 409.770562,433 414.423384,433 L470.576616,433 C475.229438,433 479,429.194135 479,424.5 C479,419.805865 475.229438,416 470.576616,416 Z" id="Shape" fill="#FFFFFF" fill-rule="nonzero"></path>
            <path d="M470.576616,383 L414.423384,383 C409.770562,383 406,386.805865 406,391.5 C406,396.194135 409.770562,400 414.423384,400 L470.576616,400 C475.229438,400 479,396.194135 479,391.5 C479,386.805865 475.229438,383 470.576616,383 Z" id="Shape" fill="#FFFFFF" fill-rule="nonzero"></path>
            <path d="M493.055,135.033 L247.361,135.033 L305.549,27.965 C312.333,26.967 317.562,21.123 317.562,14.066 C317.563,6.309 311.253,0 303.497,0 C295.741,0 289.431,6.309 289.431,14.066 C289.431,16.151 289.899,18.125 290.717,19.906 L228.15,135.033 L193.178,135.033 L130.606,19.906 C131.424,18.125 131.892,16.151 131.892,14.066 C131.892,6.309 125.583,0 117.826,0 C110.069,0 103.761,6.309 103.761,14.066 C103.761,21.124 108.991,26.966 115.776,27.965 L173.966,135.033 L42.945,135.033 C25.881,135.033 12,148.914 12,165.978 L12,481.055 C12,498.119 25.881,512 42.945,512 L493.055,512 C510.117,512 524,498.119 524,481.055 L524,165.978 C524,148.914 510.117,135.033 493.055,135.033 Z M507.121,481.055 C507.121,488.812 500.812,495.121 493.055,495.121 L42.945,495.121 C35.188,495.121 28.879,488.812 28.879,481.055 L28.879,165.978 C28.879,158.221 35.188,151.912 42.945,151.912 L188.14,151.912 C188.148,151.912 188.157,151.913 188.165,151.913 C188.174,151.913 188.183,151.912 188.192,151.912 L233.133,151.912 C233.142,151.912 233.151,151.913 233.16,151.913 C233.168,151.913 233.177,151.912 233.185,151.912 L493.055,151.912 C500.812,151.912 507.121,158.221 507.121,165.978 L507.121,481.055 Z" id="Shape" fill="#FFFFFF" fill-rule="nonzero"></path>
            <path d="M481.055,147.033 L235.361,147.033 L293.549,39.965 C300.333,38.967 305.562,33.123 305.562,26.066 C305.563,18.309 299.253,12 291.497,12 C283.741,12 277.431,18.309 277.431,26.066 C277.431,28.151 277.899,30.125 278.717,31.906 L216.15,147.033 L181.178,147.033 L118.606,31.906 C119.424,30.125 119.892,28.151 119.892,26.066 C119.892,18.309 113.583,12 105.826,12 C98.069,12 91.761,18.309 91.761,26.066 C91.761,33.124 96.991,38.966 103.776,39.965 L161.966,147.033 L30.945,147.033 C13.881,147.033 0,160.914 0,177.978 L0,493.055 C0,510.119 13.881,524 30.945,524 L481.055,524 C498.117,524 512,510.119 512,493.055 L512,177.978 C512,160.914 498.117,147.033 481.055,147.033 Z M495.121,493.055 C495.121,500.812 488.812,507.121 481.055,507.121 L30.945,507.121 C23.188,507.121 16.879,500.812 16.879,493.055 L16.879,177.978 C16.879,170.221 23.188,163.912 30.945,163.912 L176.14,163.912 C176.148,163.912 176.157,163.913 176.165,163.913 C176.174,163.913 176.183,163.912 176.192,163.912 L221.133,163.912 C221.142,163.912 221.151,163.913 221.16,163.913 C221.168,163.913 221.177,163.912 221.185,163.912 L481.055,163.912 C488.812,163.912 495.121,170.221 495.121,177.978 L495.121,493.055 Z" id="Shape" fill-opacity="0.16" fill="#FFFFFF" fill-rule="nonzero"></path>
            <path d="M344.514961,209.601673 C319.793537,191.066121 272.304462,180 217.482737,180 C162.661011,180 115.170935,191.066121 90.4485111,209.601673 C71.7695685,223.605356 59.7186378,257.193793 57.3825188,301.754333 C54.9383018,348.39027 64.0305489,409.459973 89.7698956,433.34255 C116.516156,458.158306 173.277641,467 217.481736,467 C261.685831,467 318.447316,458.158306 345.192575,433.34255 C355.242691,424.018763 363.293994,408.648818 369.127285,387.660796 C370.375417,383.168935 367.743029,378.516043 363.247952,377.268804 C358.745869,376.020565 354.096652,378.652069 352.84852,383.14393 C347.936064,400.825318 341.313056,413.905825 333.697148,420.970179 C314.613839,438.675572 268.997463,450.116765 217.481736,450.116765 C165.966009,450.116765 120.348632,438.674572 101.265322,420.970179 C83.2089445,404.215968 71.5964114,353.345219 74.2548227,302.637502 C76.2966748,263.669034 86.1416046,233.936336 100.587708,223.10426 C122.162277,206.930161 166.953905,196.881235 217.482737,196.881235 C268.011569,196.881235 312.803197,206.929161 334.376765,223.10426 C354.974448,238.54722 365.833297,294.563955 359.098188,350.629699 C358.541683,355.258586 361.84568,359.461392 366.478883,360.017498 C371.101075,360.564603 375.315898,357.270972 375.872403,352.642085 C382.217158,299.829964 375.109711,232.539068 344.514961,209.601673 Z" id="Shape" fill="#FFFFFF" fill-rule="nonzero"></path>
        </g>
    </g>
</svg>